<?xml version="1.0" encoding="utf-8" standalone="no"?>
<!DOCTYPE svg PUBLIC "-//W3C//DTD SVG 1.1//EN"
  "http://www.w3.org/Graphics/SVG/1.1/DTD/svg11.dtd">
<svg xmlns:xlink="http://www.w3.org/1999/xlink" width="432pt" height="432pt" viewBox="0 0 432 432" xmlns="http://www.w3.org/2000/svg" version="1.1">
 <metadata>
  <rdf:RDF xmlns:dc="http://purl.org/dc/elements/1.1/" xmlns:cc="http://creativecommons.org/ns#" xmlns:rdf="http://www.w3.org/1999/02/22-rdf-syntax-ns#">
   <cc:Work>
    <dc:type rdf:resource="http://purl.org/dc/dcmitype/StillImage"/>
    <dc:date>2024-06-27T21:10:34.136381</dc:date>
    <dc:format>image/svg+xml</dc:format>
    <dc:creator>
     <cc:Agent>
      <dc:title>Matplotlib v3.7.1, https://matplotlib.org/</dc:title>
     </cc:Agent>
    </dc:creator>
   </cc:Work>
  </rdf:RDF>
 </metadata>
 <defs>
  <style type="text/css">*{stroke-linejoin: round; stroke-linecap: butt}</style>
 </defs>
 <g id="figure_1">
  <g id="patch_1">
   <path d="M 0 432 
L 432 432 
L 432 0 
L 0 0 
z
" style="fill: #ffffff"/>
  </g>
  <g id="axes_1">
   <g id="patch_2">
    <path d="M 54.53 126.886667 
L 421.2 126.886667 
L 421.2 37.8 
L 54.53 37.8 
z
" style="fill: #ebebeb"/>
   </g>
   <g id="matplotlib.axis_1">
    <g id="xtick_1">
     <g id="line2d_1">
      <path d="M 106.630211 126.886667 
L 106.630211 37.8 
" clip-path="url(#pc23c75b343)" style="fill: none; stroke: #ffffff; stroke-width: 1.2; stroke-linecap: square"/>
     </g>
     <g id="line2d_2">
      <defs>
       <path id="m8d541d6bf7" d="M 0 0 
L 0 3.5 
" style="stroke: #555555; stroke-width: 0.8"/>
      </defs>
      <g>
       <use xlink:href="#m8d541d6bf7" x="106.630211" y="126.886667" style="fill: #555555; stroke: #555555; stroke-width: 0.8"/>
      </g>
     </g>
    </g>
    <g id="xtick_2">
     <g id="line2d_3">
      <path d="M 237.865 126.886667 
L 237.865 37.8 
" clip-path="url(#pc23c75b343)" style="fill: none; stroke: #ffffff; stroke-width: 1.2; stroke-linecap: square"/>
     </g>
     <g id="line2d_4">
      <g>
       <use xlink:href="#m8d541d6bf7" x="237.865" y="126.886667" style="fill: #555555; stroke: #555555; stroke-width: 0.8"/>
      </g>
     </g>
    </g>
    <g id="xtick_3">
     <g id="line2d_5">
      <path d="M 369.099789 126.886667 
L 369.099789 37.8 
" clip-path="url(#pc23c75b343)" style="fill: none; stroke: #ffffff; stroke-width: 1.2; stroke-linecap: square"/>
     </g>
     <g id="line2d_6">
      <g>
       <use xlink:href="#m8d541d6bf7" x="369.099789" y="126.886667" style="fill: #555555; stroke: #555555; stroke-width: 0.8"/>
      </g>
     </g>
    </g>
   </g>
   <g id="matplotlib.axis_2">
    <g id="ytick_1">
     <g id="line2d_7">
      <path d="M 54.53 114.451582 
L 421.2 114.451582 
" clip-path="url(#pc23c75b343)" style="fill: none; stroke: #ffffff; stroke-width: 1.2; stroke-linecap: square"/>
     </g>
     <g id="line2d_8">
      <defs>
       <path id="mf2c707fbe0" d="M 0 0 
L -3.5 0 
" style="stroke: #555555; stroke-width: 0.8"/>
      </defs>
      <g>
       <use xlink:href="#mf2c707fbe0" x="54.53" y="114.451582" style="fill: #555555; stroke: #555555; stroke-width: 0.8"/>
      </g>
     </g>
     <g id="text_1">
      <!-- −2 -->
      <g style="fill: #555555" transform="translate(32.787812 118.2508) scale(0.1 -0.1)">
       <defs>
        <path id="DejaVuSans-2212" d="M 678 2272 
L 4684 2272 
L 4684 1741 
L 678 1741 
L 678 2272 
z
" transform="scale(0.015625)"/>
        <path id="DejaVuSans-32" d="M 1228 531 
L 3431 531 
L 3431 0 
L 469 0 
L 469 531 
Q 828 903 1448 1529 
Q 2069 2156 2228 2338 
Q 2531 2678 2651 2914 
Q 2772 3150 2772 3378 
Q 2772 3750 2511 3984 
Q 2250 4219 1831 4219 
Q 1534 4219 1204 4116 
Q 875 4013 500 3803 
L 500 4441 
Q 881 4594 1212 4672 
Q 1544 4750 1819 4750 
Q 2544 4750 2975 4387 
Q 3406 4025 3406 3419 
Q 3406 3131 3298 2873 
Q 3191 2616 2906 2266 
Q 2828 2175 2409 1742 
Q 1991 1309 1228 531 
z
" transform="scale(0.015625)"/>
       </defs>
       <use xlink:href="#DejaVuSans-2212"/>
       <use xlink:href="#DejaVuSans-32" x="83.789062"/>
      </g>
     </g>
    </g>
    <g id="ytick_2">
     <g id="line2d_9">
      <path d="M 54.53 80.893836 
L 421.2 80.893836 
" clip-path="url(#pc23c75b343)" style="fill: none; stroke: #ffffff; stroke-width: 1.2; stroke-linecap: square"/>
     </g>
     <g id="line2d_10">
      <g>
       <use xlink:href="#mf2c707fbe0" x="54.53" y="80.893836" style="fill: #555555; stroke: #555555; stroke-width: 0.8"/>
      </g>
     </g>
     <g id="text_2">
      <!-- 0 -->
      <g style="fill: #555555" transform="translate(41.1675 84.693055) scale(0.1 -0.1)">
       <defs>
        <path id="DejaVuSans-30" d="M 2034 4250 
Q 1547 4250 1301 3770 
Q 1056 3291 1056 2328 
Q 1056 1369 1301 889 
Q 1547 409 2034 409 
Q 2525 409 2770 889 
Q 3016 1369 3016 2328 
Q 3016 3291 2770 3770 
Q 2525 4250 2034 4250 
z
M 2034 4750 
Q 2819 4750 3233 4129 
Q 3647 3509 3647 2328 
Q 3647 1150 3233 529 
Q 2819 -91 2034 -91 
Q 1250 -91 836 529 
Q 422 1150 422 2328 
Q 422 3509 836 4129 
Q 1250 4750 2034 4750 
z
" transform="scale(0.015625)"/>
       </defs>
       <use xlink:href="#DejaVuSans-30"/>
      </g>
     </g>
    </g>
    <g id="ytick_3">
     <g id="line2d_11">
      <path d="M 54.53 47.336091 
L 421.2 47.336091 
" clip-path="url(#pc23c75b343)" style="fill: none; stroke: #ffffff; stroke-width: 1.2; stroke-linecap: square"/>
     </g>
     <g id="line2d_12">
      <g>
       <use xlink:href="#mf2c707fbe0" x="54.53" y="47.336091" style="fill: #555555; stroke: #555555; stroke-width: 0.8"/>
      </g>
     </g>
     <g id="text_3">
      <!-- 2 -->
      <g style="fill: #555555" transform="translate(41.1675 51.13531) scale(0.1 -0.1)">
       <use xlink:href="#DejaVuSans-32"/>
      </g>
     </g>
    </g>
    <g id="text_4">
     <!-- 1e9 -->
     <g style="fill: #555555" transform="translate(54.53 34.8) scale(0.1 -0.1)">
      <defs>
       <path id="DejaVuSans-31" d="M 794 531 
L 1825 531 
L 1825 4091 
L 703 3866 
L 703 4441 
L 1819 4666 
L 2450 4666 
L 2450 531 
L 3481 531 
L 3481 0 
L 794 0 
L 794 531 
z
" transform="scale(0.015625)"/>
       <path id="DejaVuSans-65" d="M 3597 1894 
L 3597 1613 
L 953 1613 
Q 991 1019 1311 708 
Q 1631 397 2203 397 
Q 2534 397 2845 478 
Q 3156 559 3463 722 
L 3463 178 
Q 3153 47 2828 -22 
Q 2503 -91 2169 -91 
Q 1331 -91 842 396 
Q 353 884 353 1716 
Q 353 2575 817 3079 
Q 1281 3584 2069 3584 
Q 2775 3584 3186 3129 
Q 3597 2675 3597 1894 
z
M 3022 2063 
Q 3016 2534 2758 2815 
Q 2500 3097 2075 3097 
Q 1594 3097 1305 2825 
Q 1016 2553 972 2059 
L 3022 2063 
z
" transform="scale(0.015625)"/>
       <path id="DejaVuSans-39" d="M 703 97 
L 703 672 
Q 941 559 1184 500 
Q 1428 441 1663 441 
Q 2288 441 2617 861 
Q 2947 1281 2994 2138 
Q 2813 1869 2534 1725 
Q 2256 1581 1919 1581 
Q 1219 1581 811 2004 
Q 403 2428 403 3163 
Q 403 3881 828 4315 
Q 1253 4750 1959 4750 
Q 2769 4750 3195 4129 
Q 3622 3509 3622 2328 
Q 3622 1225 3098 567 
Q 2575 -91 1691 -91 
Q 1453 -91 1209 -44 
Q 966 3 703 97 
z
M 1959 2075 
Q 2384 2075 2632 2365 
Q 2881 2656 2881 3163 
Q 2881 3666 2632 3958 
Q 2384 4250 1959 4250 
Q 1534 4250 1286 3958 
Q 1038 3666 1038 3163 
Q 1038 2656 1286 2365 
Q 1534 2075 1959 2075 
z
" transform="scale(0.015625)"/>
      </defs>
      <use xlink:href="#DejaVuSans-31"/>
      <use xlink:href="#DejaVuSans-65" x="63.623047"/>
      <use xlink:href="#DejaVuSans-39" x="125.146484"/>
     </g>
    </g>
   </g>
   <g id="patch_3">
    <path d="M 71.196818 80.893836 
L 84.320297 80.893836 
L 84.320297 79.592453 
L 71.196818 79.592453 
z
" clip-path="url(#pc23c75b343)" style="fill: #4477aa"/>
   </g>
   <g id="patch_4">
    <path d="M 202.431607 80.893836 
L 215.555086 80.893836 
L 215.555086 69.15625 
L 202.431607 69.15625 
z
" clip-path="url(#pc23c75b343)" style="fill: #4477aa"/>
   </g>
   <g id="patch_5">
    <path d="M 333.666396 80.893836 
L 346.789875 80.893836 
L 346.789875 48.291893 
L 333.666396 48.291893 
z
" clip-path="url(#pc23c75b343)" style="fill: #4477aa"/>
   </g>
   <g id="patch_6">
    <path d="M 85.632645 80.893836 
L 98.756124 80.893836 
L 98.756124 80.173903 
L 85.632645 80.173903 
z
" clip-path="url(#pc23c75b343)" style="fill: #66ccee"/>
   </g>
   <g id="patch_7">
    <path d="M 216.867434 80.893836 
L 229.990913 80.893836 
L 229.990913 74.351594 
L 216.867434 74.351594 
z
" clip-path="url(#pc23c75b343)" style="fill: #66ccee"/>
   </g>
   <g id="patch_8">
    <path d="M 348.102223 80.893836 
L 361.225702 80.893836 
L 361.225702 62.700517 
L 348.102223 62.700517 
z
" clip-path="url(#pc23c75b343)" style="fill: #66ccee"/>
   </g>
   <g id="patch_9">
    <path d="M 100.068472 80.893836 
L 113.191951 80.893836 
L 113.191951 81.125367 
L 100.068472 81.125367 
z
" clip-path="url(#pc23c75b343)" style="fill: #228833"/>
   </g>
   <g id="patch_10">
    <path d="M 231.303261 80.893836 
L 244.426739 80.893836 
L 244.426739 83.028173 
L 231.303261 83.028173 
z
" clip-path="url(#pc23c75b343)" style="fill: #228833"/>
   </g>
   <g id="patch_11">
    <path d="M 362.538049 80.893836 
L 375.661528 80.893836 
L 375.661528 86.750336 
L 362.538049 86.750336 
z
" clip-path="url(#pc23c75b343)" style="fill: #228833"/>
   </g>
   <g id="patch_12">
    <path d="M 114.504298 80.893836 
L 127.627777 80.893836 
L 127.627777 82.09445 
L 114.504298 82.09445 
z
" clip-path="url(#pc23c75b343)" style="fill: #d4bb44"/>
   </g>
   <g id="patch_13">
    <path d="M 245.739087 80.893836 
L 258.862566 80.893836 
L 258.862566 91.687081 
L 245.739087 91.687081 
z
" clip-path="url(#pc23c75b343)" style="fill: #d4bb44"/>
   </g>
   <g id="patch_14">
    <path d="M 376.973876 80.893836 
L 390.097355 80.893836 
L 390.097355 110.782432 
L 376.973876 110.782432 
z
" clip-path="url(#pc23c75b343)" style="fill: #d4bb44"/>
   </g>
   <g id="patch_15">
    <path d="M 128.940125 80.893836 
L 142.063604 80.893836 
L 142.063604 82.6759 
L 128.940125 82.6759 
z
" clip-path="url(#pc23c75b343)" style="fill: #ee6677"/>
   </g>
   <g id="patch_16">
    <path d="M 260.174914 80.893836 
L 273.298393 80.893836 
L 273.298393 96.900097 
L 260.174914 96.900097 
z
" clip-path="url(#pc23c75b343)" style="fill: #ee6677"/>
   </g>
   <g id="patch_17">
    <path d="M 391.409703 80.893836 
L 404.533182 80.893836 
L 404.533182 125.208779 
L 391.409703 125.208779 
z
" clip-path="url(#pc23c75b343)" style="fill: #ee6677"/>
   </g>
   <g id="text_5">
    <!-- MAC reduction for diff. d for CP decomposition -->
    <g transform="translate(99.354062 31.8) scale(0.12 -0.12)">
     <defs>
      <path id="DejaVuSans-4d" d="M 628 4666 
L 1569 4666 
L 2759 1491 
L 3956 4666 
L 4897 4666 
L 4897 0 
L 4281 0 
L 4281 4097 
L 3078 897 
L 2444 897 
L 1241 4097 
L 1241 0 
L 628 0 
L 628 4666 
z
" transform="scale(0.015625)"/>
      <path id="DejaVuSans-41" d="M 2188 4044 
L 1331 1722 
L 3047 1722 
L 2188 4044 
z
M 1831 4666 
L 2547 4666 
L 4325 0 
L 3669 0 
L 3244 1197 
L 1141 1197 
L 716 0 
L 50 0 
L 1831 4666 
z
" transform="scale(0.015625)"/>
      <path id="DejaVuSans-43" d="M 4122 4306 
L 4122 3641 
Q 3803 3938 3442 4084 
Q 3081 4231 2675 4231 
Q 1875 4231 1450 3742 
Q 1025 3253 1025 2328 
Q 1025 1406 1450 917 
Q 1875 428 2675 428 
Q 3081 428 3442 575 
Q 3803 722 4122 1019 
L 4122 359 
Q 3791 134 3420 21 
Q 3050 -91 2638 -91 
Q 1578 -91 968 557 
Q 359 1206 359 2328 
Q 359 3453 968 4101 
Q 1578 4750 2638 4750 
Q 3056 4750 3426 4639 
Q 3797 4528 4122 4306 
z
" transform="scale(0.015625)"/>
      <path id="DejaVuSans-20" transform="scale(0.015625)"/>
      <path id="DejaVuSans-72" d="M 2631 2963 
Q 2534 3019 2420 3045 
Q 2306 3072 2169 3072 
Q 1681 3072 1420 2755 
Q 1159 2438 1159 1844 
L 1159 0 
L 581 0 
L 581 3500 
L 1159 3500 
L 1159 2956 
Q 1341 3275 1631 3429 
Q 1922 3584 2338 3584 
Q 2397 3584 2469 3576 
Q 2541 3569 2628 3553 
L 2631 2963 
z
" transform="scale(0.015625)"/>
      <path id="DejaVuSans-64" d="M 2906 2969 
L 2906 4863 
L 3481 4863 
L 3481 0 
L 2906 0 
L 2906 525 
Q 2725 213 2448 61 
Q 2172 -91 1784 -91 
Q 1150 -91 751 415 
Q 353 922 353 1747 
Q 353 2572 751 3078 
Q 1150 3584 1784 3584 
Q 2172 3584 2448 3432 
Q 2725 3281 2906 2969 
z
M 947 1747 
Q 947 1113 1208 752 
Q 1469 391 1925 391 
Q 2381 391 2643 752 
Q 2906 1113 2906 1747 
Q 2906 2381 2643 2742 
Q 2381 3103 1925 3103 
Q 1469 3103 1208 2742 
Q 947 2381 947 1747 
z
" transform="scale(0.015625)"/>
      <path id="DejaVuSans-75" d="M 544 1381 
L 544 3500 
L 1119 3500 
L 1119 1403 
Q 1119 906 1312 657 
Q 1506 409 1894 409 
Q 2359 409 2629 706 
Q 2900 1003 2900 1516 
L 2900 3500 
L 3475 3500 
L 3475 0 
L 2900 0 
L 2900 538 
Q 2691 219 2414 64 
Q 2138 -91 1772 -91 
Q 1169 -91 856 284 
Q 544 659 544 1381 
z
M 1991 3584 
L 1991 3584 
z
" transform="scale(0.015625)"/>
      <path id="DejaVuSans-63" d="M 3122 3366 
L 3122 2828 
Q 2878 2963 2633 3030 
Q 2388 3097 2138 3097 
Q 1578 3097 1268 2742 
Q 959 2388 959 1747 
Q 959 1106 1268 751 
Q 1578 397 2138 397 
Q 2388 397 2633 464 
Q 2878 531 3122 666 
L 3122 134 
Q 2881 22 2623 -34 
Q 2366 -91 2075 -91 
Q 1284 -91 818 406 
Q 353 903 353 1747 
Q 353 2603 823 3093 
Q 1294 3584 2113 3584 
Q 2378 3584 2631 3529 
Q 2884 3475 3122 3366 
z
" transform="scale(0.015625)"/>
      <path id="DejaVuSans-74" d="M 1172 4494 
L 1172 3500 
L 2356 3500 
L 2356 3053 
L 1172 3053 
L 1172 1153 
Q 1172 725 1289 603 
Q 1406 481 1766 481 
L 2356 481 
L 2356 0 
L 1766 0 
Q 1100 0 847 248 
Q 594 497 594 1153 
L 594 3053 
L 172 3053 
L 172 3500 
L 594 3500 
L 594 4494 
L 1172 4494 
z
" transform="scale(0.015625)"/>
      <path id="DejaVuSans-69" d="M 603 3500 
L 1178 3500 
L 1178 0 
L 603 0 
L 603 3500 
z
M 603 4863 
L 1178 4863 
L 1178 4134 
L 603 4134 
L 603 4863 
z
" transform="scale(0.015625)"/>
      <path id="DejaVuSans-6f" d="M 1959 3097 
Q 1497 3097 1228 2736 
Q 959 2375 959 1747 
Q 959 1119 1226 758 
Q 1494 397 1959 397 
Q 2419 397 2687 759 
Q 2956 1122 2956 1747 
Q 2956 2369 2687 2733 
Q 2419 3097 1959 3097 
z
M 1959 3584 
Q 2709 3584 3137 3096 
Q 3566 2609 3566 1747 
Q 3566 888 3137 398 
Q 2709 -91 1959 -91 
Q 1206 -91 779 398 
Q 353 888 353 1747 
Q 353 2609 779 3096 
Q 1206 3584 1959 3584 
z
" transform="scale(0.015625)"/>
      <path id="DejaVuSans-6e" d="M 3513 2113 
L 3513 0 
L 2938 0 
L 2938 2094 
Q 2938 2591 2744 2837 
Q 2550 3084 2163 3084 
Q 1697 3084 1428 2787 
Q 1159 2491 1159 1978 
L 1159 0 
L 581 0 
L 581 3500 
L 1159 3500 
L 1159 2956 
Q 1366 3272 1645 3428 
Q 1925 3584 2291 3584 
Q 2894 3584 3203 3211 
Q 3513 2838 3513 2113 
z
" transform="scale(0.015625)"/>
      <path id="DejaVuSans-66" d="M 2375 4863 
L 2375 4384 
L 1825 4384 
Q 1516 4384 1395 4259 
Q 1275 4134 1275 3809 
L 1275 3500 
L 2222 3500 
L 2222 3053 
L 1275 3053 
L 1275 0 
L 697 0 
L 697 3053 
L 147 3053 
L 147 3500 
L 697 3500 
L 697 3744 
Q 697 4328 969 4595 
Q 1241 4863 1831 4863 
L 2375 4863 
z
" transform="scale(0.015625)"/>
      <path id="DejaVuSans-2e" d="M 684 794 
L 1344 794 
L 1344 0 
L 684 0 
L 684 794 
z
" transform="scale(0.015625)"/>
      <path id="DejaVuSans-50" d="M 1259 4147 
L 1259 2394 
L 2053 2394 
Q 2494 2394 2734 2622 
Q 2975 2850 2975 3272 
Q 2975 3691 2734 3919 
Q 2494 4147 2053 4147 
L 1259 4147 
z
M 628 4666 
L 2053 4666 
Q 2838 4666 3239 4311 
Q 3641 3956 3641 3272 
Q 3641 2581 3239 2228 
Q 2838 1875 2053 1875 
L 1259 1875 
L 1259 0 
L 628 0 
L 628 4666 
z
" transform="scale(0.015625)"/>
      <path id="DejaVuSans-6d" d="M 3328 2828 
Q 3544 3216 3844 3400 
Q 4144 3584 4550 3584 
Q 5097 3584 5394 3201 
Q 5691 2819 5691 2113 
L 5691 0 
L 5113 0 
L 5113 2094 
Q 5113 2597 4934 2840 
Q 4756 3084 4391 3084 
Q 3944 3084 3684 2787 
Q 3425 2491 3425 1978 
L 3425 0 
L 2847 0 
L 2847 2094 
Q 2847 2600 2669 2842 
Q 2491 3084 2119 3084 
Q 1678 3084 1418 2786 
Q 1159 2488 1159 1978 
L 1159 0 
L 581 0 
L 581 3500 
L 1159 3500 
L 1159 2956 
Q 1356 3278 1631 3431 
Q 1906 3584 2284 3584 
Q 2666 3584 2933 3390 
Q 3200 3197 3328 2828 
z
" transform="scale(0.015625)"/>
      <path id="DejaVuSans-70" d="M 1159 525 
L 1159 -1331 
L 581 -1331 
L 581 3500 
L 1159 3500 
L 1159 2969 
Q 1341 3281 1617 3432 
Q 1894 3584 2278 3584 
Q 2916 3584 3314 3078 
Q 3713 2572 3713 1747 
Q 3713 922 3314 415 
Q 2916 -91 2278 -91 
Q 1894 -91 1617 61 
Q 1341 213 1159 525 
z
M 3116 1747 
Q 3116 2381 2855 2742 
Q 2594 3103 2138 3103 
Q 1681 3103 1420 2742 
Q 1159 2381 1159 1747 
Q 1159 1113 1420 752 
Q 1681 391 2138 391 
Q 2594 391 2855 752 
Q 3116 1113 3116 1747 
z
" transform="scale(0.015625)"/>
      <path id="DejaVuSans-73" d="M 2834 3397 
L 2834 2853 
Q 2591 2978 2328 3040 
Q 2066 3103 1784 3103 
Q 1356 3103 1142 2972 
Q 928 2841 928 2578 
Q 928 2378 1081 2264 
Q 1234 2150 1697 2047 
L 1894 2003 
Q 2506 1872 2764 1633 
Q 3022 1394 3022 966 
Q 3022 478 2636 193 
Q 2250 -91 1575 -91 
Q 1294 -91 989 -36 
Q 684 19 347 128 
L 347 722 
Q 666 556 975 473 
Q 1284 391 1588 391 
Q 1994 391 2212 530 
Q 2431 669 2431 922 
Q 2431 1156 2273 1281 
Q 2116 1406 1581 1522 
L 1381 1569 
Q 847 1681 609 1914 
Q 372 2147 372 2553 
Q 372 3047 722 3315 
Q 1072 3584 1716 3584 
Q 2034 3584 2315 3537 
Q 2597 3491 2834 3397 
z
" transform="scale(0.015625)"/>
     </defs>
     <use xlink:href="#DejaVuSans-4d"/>
     <use xlink:href="#DejaVuSans-41" x="86.279297"/>
     <use xlink:href="#DejaVuSans-43" x="152.9375"/>
     <use xlink:href="#DejaVuSans-20" x="222.761719"/>
     <use xlink:href="#DejaVuSans-72" x="254.548828"/>
     <use xlink:href="#DejaVuSans-65" x="293.412109"/>
     <use xlink:href="#DejaVuSans-64" x="354.935547"/>
     <use xlink:href="#DejaVuSans-75" x="418.412109"/>
     <use xlink:href="#DejaVuSans-63" x="481.791016"/>
     <use xlink:href="#DejaVuSans-74" x="536.771484"/>
     <use xlink:href="#DejaVuSans-69" x="575.980469"/>
     <use xlink:href="#DejaVuSans-6f" x="603.763672"/>
     <use xlink:href="#DejaVuSans-6e" x="664.945312"/>
     <use xlink:href="#DejaVuSans-20" x="728.324219"/>
     <use xlink:href="#DejaVuSans-66" x="760.111328"/>
     <use xlink:href="#DejaVuSans-6f" x="795.316406"/>
     <use xlink:href="#DejaVuSans-72" x="856.498047"/>
     <use xlink:href="#DejaVuSans-20" x="897.611328"/>
     <use xlink:href="#DejaVuSans-64" x="929.398438"/>
     <use xlink:href="#DejaVuSans-69" x="992.875"/>
     <use xlink:href="#DejaVuSans-66" x="1020.658203"/>
     <use xlink:href="#DejaVuSans-66" x="1055.863281"/>
     <use xlink:href="#DejaVuSans-2e" x="1083.818359"/>
     <use xlink:href="#DejaVuSans-20" x="1115.605469"/>
     <use xlink:href="#DejaVuSans-64" x="1147.392578"/>
     <use xlink:href="#DejaVuSans-20" x="1210.869141"/>
     <use xlink:href="#DejaVuSans-66" x="1242.65625"/>
     <use xlink:href="#DejaVuSans-6f" x="1277.861328"/>
     <use xlink:href="#DejaVuSans-72" x="1339.042969"/>
     <use xlink:href="#DejaVuSans-20" x="1380.15625"/>
     <use xlink:href="#DejaVuSans-43" x="1411.943359"/>
     <use xlink:href="#DejaVuSans-50" x="1481.767578"/>
     <use xlink:href="#DejaVuSans-20" x="1542.070312"/>
     <use xlink:href="#DejaVuSans-64" x="1573.857422"/>
     <use xlink:href="#DejaVuSans-65" x="1637.333984"/>
     <use xlink:href="#DejaVuSans-63" x="1698.857422"/>
     <use xlink:href="#DejaVuSans-6f" x="1753.837891"/>
     <use xlink:href="#DejaVuSans-6d" x="1815.019531"/>
     <use xlink:href="#DejaVuSans-70" x="1912.431641"/>
     <use xlink:href="#DejaVuSans-6f" x="1975.908203"/>
     <use xlink:href="#DejaVuSans-73" x="2037.089844"/>
     <use xlink:href="#DejaVuSans-69" x="2089.189453"/>
     <use xlink:href="#DejaVuSans-74" x="2116.972656"/>
     <use xlink:href="#DejaVuSans-69" x="2156.181641"/>
     <use xlink:href="#DejaVuSans-6f" x="2183.964844"/>
     <use xlink:href="#DejaVuSans-6e" x="2245.146484"/>
    </g>
   </g>
  </g>
  <g id="axes_2">
   <g id="patch_18">
    <path d="M 54.53 253.773333 
L 421.2 253.773333 
L 421.2 164.686667 
L 54.53 164.686667 
z
" style="fill: #ebebeb"/>
   </g>
   <g id="matplotlib.axis_3">
    <g id="xtick_4">
     <g id="line2d_13">
      <path d="M 106.630211 253.773333 
L 106.630211 164.686667 
" clip-path="url(#pb733295ec8)" style="fill: none; stroke: #ffffff; stroke-width: 1.2; stroke-linecap: square"/>
     </g>
     <g id="line2d_14">
      <g>
       <use xlink:href="#m8d541d6bf7" x="106.630211" y="253.773333" style="fill: #555555; stroke: #555555; stroke-width: 0.8"/>
      </g>
     </g>
    </g>
    <g id="xtick_5">
     <g id="line2d_15">
      <path d="M 237.865 253.773333 
L 237.865 164.686667 
" clip-path="url(#pb733295ec8)" style="fill: none; stroke: #ffffff; stroke-width: 1.2; stroke-linecap: square"/>
     </g>
     <g id="line2d_16">
      <g>
       <use xlink:href="#m8d541d6bf7" x="237.865" y="253.773333" style="fill: #555555; stroke: #555555; stroke-width: 0.8"/>
      </g>
     </g>
    </g>
    <g id="xtick_6">
     <g id="line2d_17">
      <path d="M 369.099789 253.773333 
L 369.099789 164.686667 
" clip-path="url(#pb733295ec8)" style="fill: none; stroke: #ffffff; stroke-width: 1.2; stroke-linecap: square"/>
     </g>
     <g id="line2d_18">
      <g>
       <use xlink:href="#m8d541d6bf7" x="369.099789" y="253.773333" style="fill: #555555; stroke: #555555; stroke-width: 0.8"/>
      </g>
     </g>
    </g>
   </g>
   <g id="matplotlib.axis_4">
    <g id="ytick_4">
     <g id="line2d_19">
      <path d="M 54.53 241.338248 
L 421.2 241.338248 
" clip-path="url(#pb733295ec8)" style="fill: none; stroke: #ffffff; stroke-width: 1.2; stroke-linecap: square"/>
     </g>
     <g id="line2d_20">
      <g>
       <use xlink:href="#mf2c707fbe0" x="54.53" y="241.338248" style="fill: #555555; stroke: #555555; stroke-width: 0.8"/>
      </g>
     </g>
     <g id="text_6">
      <!-- −2 -->
      <g style="fill: #555555" transform="translate(32.787812 245.137467) scale(0.1 -0.1)">
       <use xlink:href="#DejaVuSans-2212"/>
       <use xlink:href="#DejaVuSans-32" x="83.789062"/>
      </g>
     </g>
    </g>
    <g id="ytick_5">
     <g id="line2d_21">
      <path d="M 54.53 207.780503 
L 421.2 207.780503 
" clip-path="url(#pb733295ec8)" style="fill: none; stroke: #ffffff; stroke-width: 1.2; stroke-linecap: square"/>
     </g>
     <g id="line2d_22">
      <g>
       <use xlink:href="#mf2c707fbe0" x="54.53" y="207.780503" style="fill: #555555; stroke: #555555; stroke-width: 0.8"/>
      </g>
     </g>
     <g id="text_7">
      <!-- 0 -->
      <g style="fill: #555555" transform="translate(41.1675 211.579722) scale(0.1 -0.1)">
       <use xlink:href="#DejaVuSans-30"/>
      </g>
     </g>
    </g>
    <g id="ytick_6">
     <g id="line2d_23">
      <path d="M 54.53 174.222758 
L 421.2 174.222758 
" clip-path="url(#pb733295ec8)" style="fill: none; stroke: #ffffff; stroke-width: 1.2; stroke-linecap: square"/>
     </g>
     <g id="line2d_24">
      <g>
       <use xlink:href="#mf2c707fbe0" x="54.53" y="174.222758" style="fill: #555555; stroke: #555555; stroke-width: 0.8"/>
      </g>
     </g>
     <g id="text_8">
      <!-- 2 -->
      <g style="fill: #555555" transform="translate(41.1675 178.021976) scale(0.1 -0.1)">
       <use xlink:href="#DejaVuSans-32"/>
      </g>
     </g>
    </g>
    <g id="text_9">
     <!-- 1e9 -->
     <g style="fill: #555555" transform="translate(54.53 161.686667) scale(0.1 -0.1)">
      <use xlink:href="#DejaVuSans-31"/>
      <use xlink:href="#DejaVuSans-65" x="63.623047"/>
      <use xlink:href="#DejaVuSans-39" x="125.146484"/>
     </g>
    </g>
   </g>
   <g id="patch_19">
    <path d="M 71.196818 207.780503 
L 84.320297 207.780503 
L 84.320297 206.126563 
L 71.196818 206.126563 
z
" clip-path="url(#pb733295ec8)" style="fill: #4477aa"/>
   </g>
   <g id="patch_20">
    <path d="M 202.431607 207.780503 
L 215.555086 207.780503 
L 215.555086 192.864035 
L 202.431607 192.864035 
z
" clip-path="url(#pb733295ec8)" style="fill: #4477aa"/>
   </g>
   <g id="patch_21">
    <path d="M 333.666396 207.780503 
L 346.789875 207.780503 
L 346.789875 166.688813 
L 333.666396 166.688813 
z
" clip-path="url(#pb733295ec8)" style="fill: #4477aa"/>
   </g>
   <g id="patch_22">
    <path d="M 85.632645 207.780503 
L 98.756124 207.780503 
L 98.756124 206.167712 
L 85.632645 206.167712 
z
" clip-path="url(#pb733295ec8)" style="fill: #66ccee"/>
   </g>
   <g id="patch_23">
    <path d="M 216.867434 207.780503 
L 229.990913 207.780503 
L 229.990913 194.033601 
L 216.867434 194.033601 
z
" clip-path="url(#pb733295ec8)" style="fill: #66ccee"/>
   </g>
   <g id="patch_24">
    <path d="M 348.102223 207.780503 
L 361.225702 207.780503 
L 361.225702 169.39107 
L 348.102223 169.39107 
z
" clip-path="url(#pb733295ec8)" style="fill: #66ccee"/>
   </g>
   <g id="patch_25">
    <path d="M 100.068472 207.780503 
L 113.191951 207.780503 
L 113.191951 206.254849 
L 100.068472 206.254849 
z
" clip-path="url(#pb733295ec8)" style="fill: #228833"/>
   </g>
   <g id="patch_26">
    <path d="M 231.303261 207.780503 
L 244.426739 207.780503 
L 244.426739 194.897765 
L 231.303261 194.897765 
z
" clip-path="url(#pb733295ec8)" style="fill: #228833"/>
   </g>
   <g id="patch_27">
    <path d="M 362.538049 207.780503 
L 375.661528 207.780503 
L 375.661528 175.087179 
L 362.538049 175.087179 
z
" clip-path="url(#pb733295ec8)" style="fill: #228833"/>
   </g>
   <g id="patch_28">
    <path d="M 114.504298 207.780503 
L 127.627777 207.780503 
L 127.627777 206.359248 
L 114.504298 206.359248 
z
" clip-path="url(#pb733295ec8)" style="fill: #d4bb44"/>
   </g>
   <g id="patch_29">
    <path d="M 245.739087 207.780503 
L 258.862566 207.780503 
L 258.862566 198.702713 
L 245.739087 198.702713 
z
" clip-path="url(#pb733295ec8)" style="fill: #d4bb44"/>
   </g>
   <g id="patch_30">
    <path d="M 376.973876 207.780503 
L 390.097355 207.780503 
L 390.097355 183.717067 
L 376.973876 183.717067 
z
" clip-path="url(#pb733295ec8)" style="fill: #d4bb44"/>
   </g>
   <g id="patch_31">
    <path d="M 128.940125 207.780503 
L 142.063604 207.780503 
L 142.063604 206.42907 
L 128.940125 206.42907 
z
" clip-path="url(#pb733295ec8)" style="fill: #ee6677"/>
   </g>
   <g id="patch_32">
    <path d="M 260.174914 207.780503 
L 273.298393 207.780503 
L 273.298393 199.390195 
L 260.174914 199.390195 
z
" clip-path="url(#pb733295ec8)" style="fill: #ee6677"/>
   </g>
   <g id="patch_33">
    <path d="M 391.409703 207.780503 
L 404.533182 207.780503 
L 404.533182 185.502563 
L 391.409703 185.502563 
z
" clip-path="url(#pb733295ec8)" style="fill: #ee6677"/>
   </g>
   <g id="text_10">
    <!-- MAC reduction for diff. d for Tucker decomposition -->
    <g transform="translate(87.8875 158.686667) scale(0.12 -0.12)">
     <defs>
      <path id="DejaVuSans-54" d="M -19 4666 
L 3928 4666 
L 3928 4134 
L 2272 4134 
L 2272 0 
L 1638 0 
L 1638 4134 
L -19 4134 
L -19 4666 
z
" transform="scale(0.015625)"/>
      <path id="DejaVuSans-6b" d="M 581 4863 
L 1159 4863 
L 1159 1991 
L 2875 3500 
L 3609 3500 
L 1753 1863 
L 3688 0 
L 2938 0 
L 1159 1709 
L 1159 0 
L 581 0 
L 581 4863 
z
" transform="scale(0.015625)"/>
     </defs>
     <use xlink:href="#DejaVuSans-4d"/>
     <use xlink:href="#DejaVuSans-41" x="86.279297"/>
     <use xlink:href="#DejaVuSans-43" x="152.9375"/>
     <use xlink:href="#DejaVuSans-20" x="222.761719"/>
     <use xlink:href="#DejaVuSans-72" x="254.548828"/>
     <use xlink:href="#DejaVuSans-65" x="293.412109"/>
     <use xlink:href="#DejaVuSans-64" x="354.935547"/>
     <use xlink:href="#DejaVuSans-75" x="418.412109"/>
     <use xlink:href="#DejaVuSans-63" x="481.791016"/>
     <use xlink:href="#DejaVuSans-74" x="536.771484"/>
     <use xlink:href="#DejaVuSans-69" x="575.980469"/>
     <use xlink:href="#DejaVuSans-6f" x="603.763672"/>
     <use xlink:href="#DejaVuSans-6e" x="664.945312"/>
     <use xlink:href="#DejaVuSans-20" x="728.324219"/>
     <use xlink:href="#DejaVuSans-66" x="760.111328"/>
     <use xlink:href="#DejaVuSans-6f" x="795.316406"/>
     <use xlink:href="#DejaVuSans-72" x="856.498047"/>
     <use xlink:href="#DejaVuSans-20" x="897.611328"/>
     <use xlink:href="#DejaVuSans-64" x="929.398438"/>
     <use xlink:href="#DejaVuSans-69" x="992.875"/>
     <use xlink:href="#DejaVuSans-66" x="1020.658203"/>
     <use xlink:href="#DejaVuSans-66" x="1055.863281"/>
     <use xlink:href="#DejaVuSans-2e" x="1083.818359"/>
     <use xlink:href="#DejaVuSans-20" x="1115.605469"/>
     <use xlink:href="#DejaVuSans-64" x="1147.392578"/>
     <use xlink:href="#DejaVuSans-20" x="1210.869141"/>
     <use xlink:href="#DejaVuSans-66" x="1242.65625"/>
     <use xlink:href="#DejaVuSans-6f" x="1277.861328"/>
     <use xlink:href="#DejaVuSans-72" x="1339.042969"/>
     <use xlink:href="#DejaVuSans-20" x="1380.15625"/>
     <use xlink:href="#DejaVuSans-54" x="1411.943359"/>
     <use xlink:href="#DejaVuSans-75" x="1457.902344"/>
     <use xlink:href="#DejaVuSans-63" x="1521.28125"/>
     <use xlink:href="#DejaVuSans-6b" x="1576.261719"/>
     <use xlink:href="#DejaVuSans-65" x="1630.546875"/>
     <use xlink:href="#DejaVuSans-72" x="1692.070312"/>
     <use xlink:href="#DejaVuSans-20" x="1733.183594"/>
     <use xlink:href="#DejaVuSans-64" x="1764.970703"/>
     <use xlink:href="#DejaVuSans-65" x="1828.447266"/>
     <use xlink:href="#DejaVuSans-63" x="1889.970703"/>
     <use xlink:href="#DejaVuSans-6f" x="1944.951172"/>
     <use xlink:href="#DejaVuSans-6d" x="2006.132812"/>
     <use xlink:href="#DejaVuSans-70" x="2103.544922"/>
     <use xlink:href="#DejaVuSans-6f" x="2167.021484"/>
     <use xlink:href="#DejaVuSans-73" x="2228.203125"/>
     <use xlink:href="#DejaVuSans-69" x="2280.302734"/>
     <use xlink:href="#DejaVuSans-74" x="2308.085938"/>
     <use xlink:href="#DejaVuSans-69" x="2347.294922"/>
     <use xlink:href="#DejaVuSans-6f" x="2375.078125"/>
     <use xlink:href="#DejaVuSans-6e" x="2436.259766"/>
    </g>
   </g>
  </g>
  <g id="axes_3">
   <g id="patch_34">
    <path d="M 54.53 380.66 
L 421.2 380.66 
L 421.2 291.573333 
L 54.53 291.573333 
z
" style="fill: #ebebeb"/>
   </g>
   <g id="matplotlib.axis_5">
    <g id="xtick_7">
     <g id="line2d_25">
      <path d="M 106.630211 380.66 
L 106.630211 291.573333 
" clip-path="url(#p6e0b2342bc)" style="fill: none; stroke: #ffffff; stroke-width: 1.2; stroke-linecap: square"/>
     </g>
     <g id="line2d_26">
      <g>
       <use xlink:href="#m8d541d6bf7" x="106.630211" y="380.66" style="fill: #555555; stroke: #555555; stroke-width: 0.8"/>
      </g>
     </g>
     <g id="text_11">
      <!-- 1 -->
      <g style="fill: #555555" transform="translate(103.448961 401.758437) scale(0.1 -0.1)">
       <use xlink:href="#DejaVuSans-31"/>
      </g>
     </g>
    </g>
    <g id="xtick_8">
     <g id="line2d_27">
      <path d="M 237.865 380.66 
L 237.865 291.573333 
" clip-path="url(#p6e0b2342bc)" style="fill: none; stroke: #ffffff; stroke-width: 1.2; stroke-linecap: square"/>
     </g>
     <g id="line2d_28">
      <g>
       <use xlink:href="#m8d541d6bf7" x="237.865" y="380.66" style="fill: #555555; stroke: #555555; stroke-width: 0.8"/>
      </g>
     </g>
     <g id="text_12">
      <!-- 3 -->
      <g style="fill: #555555" transform="translate(234.68375 401.758437) scale(0.1 -0.1)">
       <defs>
        <path id="DejaVuSans-33" d="M 2597 2516 
Q 3050 2419 3304 2112 
Q 3559 1806 3559 1356 
Q 3559 666 3084 287 
Q 2609 -91 1734 -91 
Q 1441 -91 1130 -33 
Q 819 25 488 141 
L 488 750 
Q 750 597 1062 519 
Q 1375 441 1716 441 
Q 2309 441 2620 675 
Q 2931 909 2931 1356 
Q 2931 1769 2642 2001 
Q 2353 2234 1838 2234 
L 1294 2234 
L 1294 2753 
L 1863 2753 
Q 2328 2753 2575 2939 
Q 2822 3125 2822 3475 
Q 2822 3834 2567 4026 
Q 2313 4219 1838 4219 
Q 1578 4219 1281 4162 
Q 984 4106 628 3988 
L 628 4550 
Q 988 4650 1302 4700 
Q 1616 4750 1894 4750 
Q 2613 4750 3031 4423 
Q 3450 4097 3450 3541 
Q 3450 3153 3228 2886 
Q 3006 2619 2597 2516 
z
" transform="scale(0.015625)"/>
       </defs>
       <use xlink:href="#DejaVuSans-33"/>
      </g>
     </g>
    </g>
    <g id="xtick_9">
     <g id="line2d_29">
      <path d="M 369.099789 380.66 
L 369.099789 291.573333 
" clip-path="url(#p6e0b2342bc)" style="fill: none; stroke: #ffffff; stroke-width: 1.2; stroke-linecap: square"/>
     </g>
     <g id="line2d_30">
      <g>
       <use xlink:href="#m8d541d6bf7" x="369.099789" y="380.66" style="fill: #555555; stroke: #555555; stroke-width: 0.8"/>
      </g>
     </g>
     <g id="text_13">
      <!-- 5 -->
      <g style="fill: #555555" transform="translate(365.918539 401.758437) scale(0.1 -0.1)">
       <defs>
        <path id="DejaVuSans-35" d="M 691 4666 
L 3169 4666 
L 3169 4134 
L 1269 4134 
L 1269 2991 
Q 1406 3038 1543 3061 
Q 1681 3084 1819 3084 
Q 2600 3084 3056 2656 
Q 3513 2228 3513 1497 
Q 3513 744 3044 326 
Q 2575 -91 1722 -91 
Q 1428 -91 1123 -41 
Q 819 9 494 109 
L 494 744 
Q 775 591 1075 516 
Q 1375 441 1709 441 
Q 2250 441 2565 725 
Q 2881 1009 2881 1497 
Q 2881 1984 2565 2268 
Q 2250 2553 1709 2553 
Q 1456 2553 1204 2497 
Q 953 2441 691 2322 
L 691 4666 
z
" transform="scale(0.015625)"/>
       </defs>
       <use xlink:href="#DejaVuSans-35"/>
      </g>
     </g>
    </g>
    <g id="text_14">
     <!-- Kernel size -->
     <g transform="translate(205.475312 416.95625) scale(0.12 -0.12)">
      <defs>
       <path id="DejaVuSans-4b" d="M 628 4666 
L 1259 4666 
L 1259 2694 
L 3353 4666 
L 4166 4666 
L 1850 2491 
L 4331 0 
L 3500 0 
L 1259 2247 
L 1259 0 
L 628 0 
L 628 4666 
z
" transform="scale(0.015625)"/>
       <path id="DejaVuSans-6c" d="M 603 4863 
L 1178 4863 
L 1178 0 
L 603 0 
L 603 4863 
z
" transform="scale(0.015625)"/>
       <path id="DejaVuSans-7a" d="M 353 3500 
L 3084 3500 
L 3084 2975 
L 922 459 
L 3084 459 
L 3084 0 
L 275 0 
L 275 525 
L 2438 3041 
L 353 3041 
L 353 3500 
z
" transform="scale(0.015625)"/>
      </defs>
      <use xlink:href="#DejaVuSans-4b"/>
      <use xlink:href="#DejaVuSans-65" x="60.576172"/>
      <use xlink:href="#DejaVuSans-72" x="122.099609"/>
      <use xlink:href="#DejaVuSans-6e" x="161.462891"/>
      <use xlink:href="#DejaVuSans-65" x="224.841797"/>
      <use xlink:href="#DejaVuSans-6c" x="286.365234"/>
      <use xlink:href="#DejaVuSans-20" x="314.148438"/>
      <use xlink:href="#DejaVuSans-73" x="345.935547"/>
      <use xlink:href="#DejaVuSans-69" x="398.035156"/>
      <use xlink:href="#DejaVuSans-7a" x="425.818359"/>
      <use xlink:href="#DejaVuSans-65" x="478.308594"/>
     </g>
    </g>
   </g>
   <g id="matplotlib.axis_6">
    <g id="ytick_7">
     <g id="line2d_31">
      <path d="M 54.53 368.224915 
L 421.2 368.224915 
" clip-path="url(#p6e0b2342bc)" style="fill: none; stroke: #ffffff; stroke-width: 1.2; stroke-linecap: square"/>
     </g>
     <g id="line2d_32">
      <g>
       <use xlink:href="#mf2c707fbe0" x="54.53" y="368.224915" style="fill: #555555; stroke: #555555; stroke-width: 0.8"/>
      </g>
     </g>
     <g id="text_15">
      <!-- −2 -->
      <g style="fill: #555555" transform="translate(32.787812 372.024134) scale(0.1 -0.1)">
       <use xlink:href="#DejaVuSans-2212"/>
       <use xlink:href="#DejaVuSans-32" x="83.789062"/>
      </g>
     </g>
    </g>
    <g id="ytick_8">
     <g id="line2d_33">
      <path d="M 54.53 334.66717 
L 421.2 334.66717 
" clip-path="url(#p6e0b2342bc)" style="fill: none; stroke: #ffffff; stroke-width: 1.2; stroke-linecap: square"/>
     </g>
     <g id="line2d_34">
      <g>
       <use xlink:href="#mf2c707fbe0" x="54.53" y="334.66717" style="fill: #555555; stroke: #555555; stroke-width: 0.8"/>
      </g>
     </g>
     <g id="text_16">
      <!-- 0 -->
      <g style="fill: #555555" transform="translate(41.1675 338.466388) scale(0.1 -0.1)">
       <use xlink:href="#DejaVuSans-30"/>
      </g>
     </g>
    </g>
    <g id="ytick_9">
     <g id="line2d_35">
      <path d="M 54.53 301.109424 
L 421.2 301.109424 
" clip-path="url(#p6e0b2342bc)" style="fill: none; stroke: #ffffff; stroke-width: 1.2; stroke-linecap: square"/>
     </g>
     <g id="line2d_36">
      <g>
       <use xlink:href="#mf2c707fbe0" x="54.53" y="301.109424" style="fill: #555555; stroke: #555555; stroke-width: 0.8"/>
      </g>
     </g>
     <g id="text_17">
      <!-- 2 -->
      <g style="fill: #555555" transform="translate(41.1675 304.908643) scale(0.1 -0.1)">
       <use xlink:href="#DejaVuSans-32"/>
      </g>
     </g>
    </g>
    <g id="text_18">
     <!-- 1e9 -->
     <g style="fill: #555555" transform="translate(54.53 288.573333) scale(0.1 -0.1)">
      <use xlink:href="#DejaVuSans-31"/>
      <use xlink:href="#DejaVuSans-65" x="63.623047"/>
      <use xlink:href="#DejaVuSans-39" x="125.146484"/>
     </g>
    </g>
   </g>
   <g id="patch_35">
    <path d="M 71.196818 334.66717 
L 84.320297 334.66717 
L 84.320297 333.101963 
L 71.196818 333.101963 
z
" clip-path="url(#p6e0b2342bc)" style="fill: #4477aa"/>
   </g>
   <g id="patch_36">
    <path d="M 202.431607 334.66717 
L 215.555086 334.66717 
L 215.555086 319.900585 
L 202.431607 319.900585 
z
" clip-path="url(#p6e0b2342bc)" style="fill: #4477aa"/>
   </g>
   <g id="patch_37">
    <path d="M 333.666396 334.66717 
L 346.789875 334.66717 
L 346.789875 293.251221 
L 333.666396 293.251221 
z
" clip-path="url(#p6e0b2342bc)" style="fill: #4477aa"/>
   </g>
   <g id="patch_38">
    <path d="M 85.632645 334.66717 
L 98.756124 334.66717 
L 98.756124 333.195663 
L 85.632645 333.195663 
z
" clip-path="url(#p6e0b2342bc)" style="fill: #66ccee"/>
   </g>
   <g id="patch_39">
    <path d="M 216.867434 334.66717 
L 229.990913 334.66717 
L 229.990913 320.187457 
L 216.867434 320.187457 
z
" clip-path="url(#p6e0b2342bc)" style="fill: #66ccee"/>
   </g>
   <g id="patch_40">
    <path d="M 348.102223 334.66717 
L 361.225702 334.66717 
L 361.225702 293.823161 
L 348.102223 293.823161 
z
" clip-path="url(#p6e0b2342bc)" style="fill: #66ccee"/>
   </g>
   <g id="patch_41">
    <path d="M 100.068472 334.66717 
L 113.191951 334.66717 
L 113.191951 333.290084 
L 100.068472 333.290084 
z
" clip-path="url(#p6e0b2342bc)" style="fill: #228833"/>
   </g>
   <g id="patch_42">
    <path d="M 231.303261 334.66717 
L 244.426739 334.66717 
L 244.426739 320.536337 
L 231.303261 320.536337 
z
" clip-path="url(#p6e0b2342bc)" style="fill: #228833"/>
   </g>
   <g id="patch_43">
    <path d="M 362.538049 334.66717 
L 375.661528 334.66717 
L 375.661528 294.567904 
L 362.538049 294.567904 
z
" clip-path="url(#p6e0b2342bc)" style="fill: #228833"/>
   </g>
   <g id="patch_44">
    <path d="M 114.504298 334.66717 
L 127.627777 334.66717 
L 127.627777 333.3579 
L 114.504298 333.3579 
z
" clip-path="url(#p6e0b2342bc)" style="fill: #d4bb44"/>
   </g>
   <g id="patch_45">
    <path d="M 245.739087 334.66717 
L 258.862566 334.66717 
L 258.862566 320.804962 
L 245.739087 320.804962 
z
" clip-path="url(#p6e0b2342bc)" style="fill: #d4bb44"/>
   </g>
   <g id="patch_46">
    <path d="M 376.973876 334.66717 
L 390.097355 334.66717 
L 390.097355 295.204 
L 376.973876 295.204 
z
" clip-path="url(#p6e0b2342bc)" style="fill: #d4bb44"/>
   </g>
   <g id="patch_47">
    <path d="M 128.940125 334.66717 
L 142.063604 334.66717 
L 142.063604 333.398646 
L 128.940125 333.398646 
z
" clip-path="url(#p6e0b2342bc)" style="fill: #ee6677"/>
   </g>
   <g id="patch_48">
    <path d="M 260.174914 334.66717 
L 273.298393 334.66717 
L 273.298393 320.946092 
L 260.174914 320.946092 
z
" clip-path="url(#p6e0b2342bc)" style="fill: #ee6677"/>
   </g>
   <g id="patch_49">
    <path d="M 391.409703 334.66717 
L 404.533182 334.66717 
L 404.533182 295.549212 
L 391.409703 295.549212 
z
" clip-path="url(#p6e0b2342bc)" style="fill: #ee6677"/>
   </g>
   <g id="text_19">
    <!-- MAC reduction for diff. d for TT decomposition -->
    <g transform="translate(99.937187 285.573333) scale(0.12 -0.12)">
     <use xlink:href="#DejaVuSans-4d"/>
     <use xlink:href="#DejaVuSans-41" x="86.279297"/>
     <use xlink:href="#DejaVuSans-43" x="152.9375"/>
     <use xlink:href="#DejaVuSans-20" x="222.761719"/>
     <use xlink:href="#DejaVuSans-72" x="254.548828"/>
     <use xlink:href="#DejaVuSans-65" x="293.412109"/>
     <use xlink:href="#DejaVuSans-64" x="354.935547"/>
     <use xlink:href="#DejaVuSans-75" x="418.412109"/>
     <use xlink:href="#DejaVuSans-63" x="481.791016"/>
     <use xlink:href="#DejaVuSans-74" x="536.771484"/>
     <use xlink:href="#DejaVuSans-69" x="575.980469"/>
     <use xlink:href="#DejaVuSans-6f" x="603.763672"/>
     <use xlink:href="#DejaVuSans-6e" x="664.945312"/>
     <use xlink:href="#DejaVuSans-20" x="728.324219"/>
     <use xlink:href="#DejaVuSans-66" x="760.111328"/>
     <use xlink:href="#DejaVuSans-6f" x="795.316406"/>
     <use xlink:href="#DejaVuSans-72" x="856.498047"/>
     <use xlink:href="#DejaVuSans-20" x="897.611328"/>
     <use xlink:href="#DejaVuSans-64" x="929.398438"/>
     <use xlink:href="#DejaVuSans-69" x="992.875"/>
     <use xlink:href="#DejaVuSans-66" x="1020.658203"/>
     <use xlink:href="#DejaVuSans-66" x="1055.863281"/>
     <use xlink:href="#DejaVuSans-2e" x="1083.818359"/>
     <use xlink:href="#DejaVuSans-20" x="1115.605469"/>
     <use xlink:href="#DejaVuSans-64" x="1147.392578"/>
     <use xlink:href="#DejaVuSans-20" x="1210.869141"/>
     <use xlink:href="#DejaVuSans-66" x="1242.65625"/>
     <use xlink:href="#DejaVuSans-6f" x="1277.861328"/>
     <use xlink:href="#DejaVuSans-72" x="1339.042969"/>
     <use xlink:href="#DejaVuSans-20" x="1380.15625"/>
     <use xlink:href="#DejaVuSans-54" x="1411.943359"/>
     <use xlink:href="#DejaVuSans-54" x="1471.277344"/>
     <use xlink:href="#DejaVuSans-20" x="1532.361328"/>
     <use xlink:href="#DejaVuSans-64" x="1564.148438"/>
     <use xlink:href="#DejaVuSans-65" x="1627.625"/>
     <use xlink:href="#DejaVuSans-63" x="1689.148438"/>
     <use xlink:href="#DejaVuSans-6f" x="1744.128906"/>
     <use xlink:href="#DejaVuSans-6d" x="1805.310547"/>
     <use xlink:href="#DejaVuSans-70" x="1902.722656"/>
     <use xlink:href="#DejaVuSans-6f" x="1966.199219"/>
     <use xlink:href="#DejaVuSans-73" x="2027.380859"/>
     <use xlink:href="#DejaVuSans-69" x="2079.480469"/>
     <use xlink:href="#DejaVuSans-74" x="2107.263672"/>
     <use xlink:href="#DejaVuSans-69" x="2146.472656"/>
     <use xlink:href="#DejaVuSans-6f" x="2174.255859"/>
     <use xlink:href="#DejaVuSans-6e" x="2235.4375"/>
    </g>
   </g>
   <g id="legend_1">
    <g id="patch_50">
     <path d="M 97.959375 375.66 
L 414.2 375.66 
Q 416.2 375.66 416.2 373.66 
L 416.2 359.981875 
Q 416.2 357.981875 414.2 357.981875 
L 97.959375 357.981875 
Q 95.959375 357.981875 95.959375 359.981875 
L 95.959375 373.66 
Q 95.959375 375.66 97.959375 375.66 
z
" style="fill: #ebebeb; opacity: 0.8; stroke: #cccccc; stroke-linejoin: miter"/>
    </g>
    <g id="patch_51">
     <path d="M 99.959375 369.580312 
L 119.959375 369.580312 
L 119.959375 362.580312 
L 99.959375 362.580312 
z
" style="fill: #4477aa"/>
    </g>
    <g id="text_20">
     <!-- 0.1 -->
     <g transform="translate(127.959375 369.580312) scale(0.1 -0.1)">
      <use xlink:href="#DejaVuSans-30"/>
      <use xlink:href="#DejaVuSans-2e" x="63.623047"/>
      <use xlink:href="#DejaVuSans-31" x="95.410156"/>
     </g>
    </g>
    <g id="patch_52">
     <path d="M 163.8625 369.580312 
L 183.8625 369.580312 
L 183.8625 362.580312 
L 163.8625 362.580312 
z
" style="fill: #66ccee"/>
    </g>
    <g id="text_21">
     <!-- 0.25 -->
     <g transform="translate(191.8625 369.580312) scale(0.1 -0.1)">
      <use xlink:href="#DejaVuSans-30"/>
      <use xlink:href="#DejaVuSans-2e" x="63.623047"/>
      <use xlink:href="#DejaVuSans-32" x="95.410156"/>
      <use xlink:href="#DejaVuSans-35" x="159.033203"/>
     </g>
    </g>
    <g id="patch_53">
     <path d="M 234.128125 369.580312 
L 254.128125 369.580312 
L 254.128125 362.580312 
L 234.128125 362.580312 
z
" style="fill: #228833"/>
    </g>
    <g id="text_22">
     <!-- 0.5 -->
     <g transform="translate(262.128125 369.580312) scale(0.1 -0.1)">
      <use xlink:href="#DejaVuSans-30"/>
      <use xlink:href="#DejaVuSans-2e" x="63.623047"/>
      <use xlink:href="#DejaVuSans-35" x="95.410156"/>
     </g>
    </g>
    <g id="patch_54">
     <path d="M 298.03125 369.580312 
L 318.03125 369.580312 
L 318.03125 362.580312 
L 298.03125 362.580312 
z
" style="fill: #d4bb44"/>
    </g>
    <g id="text_23">
     <!-- 0.75 -->
     <g transform="translate(326.03125 369.580312) scale(0.1 -0.1)">
      <defs>
       <path id="DejaVuSans-37" d="M 525 4666 
L 3525 4666 
L 3525 4397 
L 1831 0 
L 1172 0 
L 2766 4134 
L 525 4134 
L 525 4666 
z
" transform="scale(0.015625)"/>
      </defs>
      <use xlink:href="#DejaVuSans-30"/>
      <use xlink:href="#DejaVuSans-2e" x="63.623047"/>
      <use xlink:href="#DejaVuSans-37" x="95.410156"/>
      <use xlink:href="#DejaVuSans-35" x="159.033203"/>
     </g>
    </g>
    <g id="patch_55">
     <path d="M 368.296875 369.580312 
L 388.296875 369.580312 
L 388.296875 362.580312 
L 368.296875 362.580312 
z
" style="fill: #ee6677"/>
    </g>
    <g id="text_24">
     <!-- 0.9 -->
     <g transform="translate(396.296875 369.580312) scale(0.1 -0.1)">
      <use xlink:href="#DejaVuSans-30"/>
      <use xlink:href="#DejaVuSans-2e" x="63.623047"/>
      <use xlink:href="#DejaVuSans-39" x="95.410156"/>
     </g>
    </g>
   </g>
  </g>
  <g id="text_25">
   <!-- Reduced number of MAC operations -->
   <g transform="translate(17.758125 324.130313) rotate(-90) scale(0.12 -0.12)">
    <defs>
     <path id="DejaVuSans-52" d="M 2841 2188 
Q 3044 2119 3236 1894 
Q 3428 1669 3622 1275 
L 4263 0 
L 3584 0 
L 2988 1197 
Q 2756 1666 2539 1819 
Q 2322 1972 1947 1972 
L 1259 1972 
L 1259 0 
L 628 0 
L 628 4666 
L 2053 4666 
Q 2853 4666 3247 4331 
Q 3641 3997 3641 3322 
Q 3641 2881 3436 2590 
Q 3231 2300 2841 2188 
z
M 1259 4147 
L 1259 2491 
L 2053 2491 
Q 2509 2491 2742 2702 
Q 2975 2913 2975 3322 
Q 2975 3731 2742 3939 
Q 2509 4147 2053 4147 
L 1259 4147 
z
" transform="scale(0.015625)"/>
     <path id="DejaVuSans-62" d="M 3116 1747 
Q 3116 2381 2855 2742 
Q 2594 3103 2138 3103 
Q 1681 3103 1420 2742 
Q 1159 2381 1159 1747 
Q 1159 1113 1420 752 
Q 1681 391 2138 391 
Q 2594 391 2855 752 
Q 3116 1113 3116 1747 
z
M 1159 2969 
Q 1341 3281 1617 3432 
Q 1894 3584 2278 3584 
Q 2916 3584 3314 3078 
Q 3713 2572 3713 1747 
Q 3713 922 3314 415 
Q 2916 -91 2278 -91 
Q 1894 -91 1617 61 
Q 1341 213 1159 525 
L 1159 0 
L 581 0 
L 581 4863 
L 1159 4863 
L 1159 2969 
z
" transform="scale(0.015625)"/>
     <path id="DejaVuSans-61" d="M 2194 1759 
Q 1497 1759 1228 1600 
Q 959 1441 959 1056 
Q 959 750 1161 570 
Q 1363 391 1709 391 
Q 2188 391 2477 730 
Q 2766 1069 2766 1631 
L 2766 1759 
L 2194 1759 
z
M 3341 1997 
L 3341 0 
L 2766 0 
L 2766 531 
Q 2569 213 2275 61 
Q 1981 -91 1556 -91 
Q 1019 -91 701 211 
Q 384 513 384 1019 
Q 384 1609 779 1909 
Q 1175 2209 1959 2209 
L 2766 2209 
L 2766 2266 
Q 2766 2663 2505 2880 
Q 2244 3097 1772 3097 
Q 1472 3097 1187 3025 
Q 903 2953 641 2809 
L 641 3341 
Q 956 3463 1253 3523 
Q 1550 3584 1831 3584 
Q 2591 3584 2966 3190 
Q 3341 2797 3341 1997 
z
" transform="scale(0.015625)"/>
    </defs>
    <use xlink:href="#DejaVuSans-52"/>
    <use xlink:href="#DejaVuSans-65" x="64.982422"/>
    <use xlink:href="#DejaVuSans-64" x="126.505859"/>
    <use xlink:href="#DejaVuSans-75" x="189.982422"/>
    <use xlink:href="#DejaVuSans-63" x="253.361328"/>
    <use xlink:href="#DejaVuSans-65" x="308.341797"/>
    <use xlink:href="#DejaVuSans-64" x="369.865234"/>
    <use xlink:href="#DejaVuSans-20" x="433.341797"/>
    <use xlink:href="#DejaVuSans-6e" x="465.128906"/>
    <use xlink:href="#DejaVuSans-75" x="528.507812"/>
    <use xlink:href="#DejaVuSans-6d" x="591.886719"/>
    <use xlink:href="#DejaVuSans-62" x="689.298828"/>
    <use xlink:href="#DejaVuSans-65" x="752.775391"/>
    <use xlink:href="#DejaVuSans-72" x="814.298828"/>
    <use xlink:href="#DejaVuSans-20" x="855.412109"/>
    <use xlink:href="#DejaVuSans-6f" x="887.199219"/>
    <use xlink:href="#DejaVuSans-66" x="948.380859"/>
    <use xlink:href="#DejaVuSans-20" x="983.585938"/>
    <use xlink:href="#DejaVuSans-4d" x="1015.373047"/>
    <use xlink:href="#DejaVuSans-41" x="1101.652344"/>
    <use xlink:href="#DejaVuSans-43" x="1168.310547"/>
    <use xlink:href="#DejaVuSans-20" x="1238.134766"/>
    <use xlink:href="#DejaVuSans-6f" x="1269.921875"/>
    <use xlink:href="#DejaVuSans-70" x="1331.103516"/>
    <use xlink:href="#DejaVuSans-65" x="1394.580078"/>
    <use xlink:href="#DejaVuSans-72" x="1456.103516"/>
    <use xlink:href="#DejaVuSans-61" x="1497.216797"/>
    <use xlink:href="#DejaVuSans-74" x="1558.496094"/>
    <use xlink:href="#DejaVuSans-69" x="1597.705078"/>
    <use xlink:href="#DejaVuSans-6f" x="1625.488281"/>
    <use xlink:href="#DejaVuSans-6e" x="1686.669922"/>
    <use xlink:href="#DejaVuSans-73" x="1750.048828"/>
   </g>
  </g>
 </g>
 <defs>
  <clipPath id="pc23c75b343">
   <rect x="54.53" y="37.8" width="366.67" height="89.086667"/>
  </clipPath>
  <clipPath id="pb733295ec8">
   <rect x="54.53" y="164.686667" width="366.67" height="89.086667"/>
  </clipPath>
  <clipPath id="p6e0b2342bc">
   <rect x="54.53" y="291.573333" width="366.67" height="89.086667"/>
  </clipPath>
 </defs>
</svg>
