<?xml version="1.0" encoding="utf-8" standalone="no"?>
<!DOCTYPE svg PUBLIC "-//W3C//DTD SVG 1.1//EN"
  "http://www.w3.org/Graphics/SVG/1.1/DTD/svg11.dtd">
<svg xmlns:xlink="http://www.w3.org/1999/xlink" width="432pt" height="432pt" viewBox="0 0 432 432" xmlns="http://www.w3.org/2000/svg" version="1.1">
 <metadata>
  <rdf:RDF xmlns:dc="http://purl.org/dc/elements/1.1/" xmlns:cc="http://creativecommons.org/ns#" xmlns:rdf="http://www.w3.org/1999/02/22-rdf-syntax-ns#">
   <cc:Work>
    <dc:type rdf:resource="http://purl.org/dc/dcmitype/StillImage"/>
    <dc:date>2024-06-29T16:23:38.966830</dc:date>
    <dc:format>image/svg+xml</dc:format>
    <dc:creator>
     <cc:Agent>
      <dc:title>Matplotlib v3.7.1, https://matplotlib.org/</dc:title>
     </cc:Agent>
    </dc:creator>
   </cc:Work>
  </rdf:RDF>
 </metadata>
 <defs>
  <style type="text/css">*{stroke-linejoin: round; stroke-linecap: butt}</style>
 </defs>
 <g id="figure_1">
  <g id="patch_1">
   <path d="M 0 432 
L 432 432 
L 432 0 
L 0 0 
z
" style="fill: #ffffff"/>
  </g>
  <g id="axes_1">
   <g id="patch_2">
    <path d="M 54.53 123.367374 
L 421.2 123.367374 
L 421.2 37.8 
L 54.53 37.8 
z
" style="fill: #ebebeb"/>
   </g>
   <g id="matplotlib.axis_1">
    <g id="xtick_1">
     <g id="line2d_1">
      <path d="M 96.620778 123.367374 
L 96.620778 37.8 
" clip-path="url(#p3803924ea3)" style="fill: none; stroke: #ffffff; stroke-width: 1.2; stroke-linecap: square"/>
     </g>
     <g id="line2d_2">
      <defs>
       <path id="m0272692930" d="M 0 0 
L 0 3.5 
" style="stroke: #555555; stroke-width: 0.8"/>
      </defs>
      <g>
       <use xlink:href="#m0272692930" x="96.620778" y="123.367374" style="fill: #555555; stroke: #555555; stroke-width: 0.8"/>
      </g>
     </g>
    </g>
    <g id="xtick_2">
     <g id="line2d_3">
      <path d="M 190.783593 123.367374 
L 190.783593 37.8 
" clip-path="url(#p3803924ea3)" style="fill: none; stroke: #ffffff; stroke-width: 1.2; stroke-linecap: square"/>
     </g>
     <g id="line2d_4">
      <g>
       <use xlink:href="#m0272692930" x="190.783593" y="123.367374" style="fill: #555555; stroke: #555555; stroke-width: 0.8"/>
      </g>
     </g>
    </g>
    <g id="xtick_3">
     <g id="line2d_5">
      <path d="M 284.946407 123.367374 
L 284.946407 37.8 
" clip-path="url(#p3803924ea3)" style="fill: none; stroke: #ffffff; stroke-width: 1.2; stroke-linecap: square"/>
     </g>
     <g id="line2d_6">
      <g>
       <use xlink:href="#m0272692930" x="284.946407" y="123.367374" style="fill: #555555; stroke: #555555; stroke-width: 0.8"/>
      </g>
     </g>
    </g>
    <g id="xtick_4">
     <g id="line2d_7">
      <path d="M 379.109222 123.367374 
L 379.109222 37.8 
" clip-path="url(#p3803924ea3)" style="fill: none; stroke: #ffffff; stroke-width: 1.2; stroke-linecap: square"/>
     </g>
     <g id="line2d_8">
      <g>
       <use xlink:href="#m0272692930" x="379.109222" y="123.367374" style="fill: #555555; stroke: #555555; stroke-width: 0.8"/>
      </g>
     </g>
    </g>
   </g>
   <g id="matplotlib.axis_2">
    <g id="ytick_1">
     <g id="line2d_9">
      <path d="M 54.53 122.631777 
L 421.2 122.631777 
" clip-path="url(#p3803924ea3)" style="fill: none; stroke: #ffffff; stroke-width: 1.2; stroke-linecap: square"/>
     </g>
     <g id="line2d_10">
      <defs>
       <path id="m62818952b8" d="M 0 0 
L -3.5 0 
" style="stroke: #555555; stroke-width: 0.8"/>
      </defs>
      <g>
       <use xlink:href="#m62818952b8" x="54.53" y="122.631777" style="fill: #555555; stroke: #555555; stroke-width: 0.8"/>
      </g>
     </g>
     <g id="text_1">
      <!-- −5.0 -->
      <g style="fill: #555555" transform="translate(23.247187 126.430996) scale(0.1 -0.1)">
       <defs>
        <path id="DejaVuSans-2212" d="M 678 2272 
L 4684 2272 
L 4684 1741 
L 678 1741 
L 678 2272 
z
" transform="scale(0.015625)"/>
        <path id="DejaVuSans-35" d="M 691 4666 
L 3169 4666 
L 3169 4134 
L 1269 4134 
L 1269 2991 
Q 1406 3038 1543 3061 
Q 1681 3084 1819 3084 
Q 2600 3084 3056 2656 
Q 3513 2228 3513 1497 
Q 3513 744 3044 326 
Q 2575 -91 1722 -91 
Q 1428 -91 1123 -41 
Q 819 9 494 109 
L 494 744 
Q 775 591 1075 516 
Q 1375 441 1709 441 
Q 2250 441 2565 725 
Q 2881 1009 2881 1497 
Q 2881 1984 2565 2268 
Q 2250 2553 1709 2553 
Q 1456 2553 1204 2497 
Q 953 2441 691 2322 
L 691 4666 
z
" transform="scale(0.015625)"/>
        <path id="DejaVuSans-2e" d="M 684 794 
L 1344 794 
L 1344 0 
L 684 0 
L 684 794 
z
" transform="scale(0.015625)"/>
        <path id="DejaVuSans-30" d="M 2034 4250 
Q 1547 4250 1301 3770 
Q 1056 3291 1056 2328 
Q 1056 1369 1301 889 
Q 1547 409 2034 409 
Q 2525 409 2770 889 
Q 3016 1369 3016 2328 
Q 3016 3291 2770 3770 
Q 2525 4250 2034 4250 
z
M 2034 4750 
Q 2819 4750 3233 4129 
Q 3647 3509 3647 2328 
Q 3647 1150 3233 529 
Q 2819 -91 2034 -91 
Q 1250 -91 836 529 
Q 422 1150 422 2328 
Q 422 3509 836 4129 
Q 1250 4750 2034 4750 
z
" transform="scale(0.015625)"/>
       </defs>
       <use xlink:href="#DejaVuSans-2212"/>
       <use xlink:href="#DejaVuSans-35" x="83.789062"/>
       <use xlink:href="#DejaVuSans-2e" x="147.412109"/>
       <use xlink:href="#DejaVuSans-30" x="179.199219"/>
      </g>
     </g>
    </g>
    <g id="ytick_2">
     <g id="line2d_11">
      <path d="M 54.53 100.050481 
L 421.2 100.050481 
" clip-path="url(#p3803924ea3)" style="fill: none; stroke: #ffffff; stroke-width: 1.2; stroke-linecap: square"/>
     </g>
     <g id="line2d_12">
      <g>
       <use xlink:href="#m62818952b8" x="54.53" y="100.050481" style="fill: #555555; stroke: #555555; stroke-width: 0.8"/>
      </g>
     </g>
     <g id="text_2">
      <!-- −2.5 -->
      <g style="fill: #555555" transform="translate(23.247187 103.849699) scale(0.1 -0.1)">
       <defs>
        <path id="DejaVuSans-32" d="M 1228 531 
L 3431 531 
L 3431 0 
L 469 0 
L 469 531 
Q 828 903 1448 1529 
Q 2069 2156 2228 2338 
Q 2531 2678 2651 2914 
Q 2772 3150 2772 3378 
Q 2772 3750 2511 3984 
Q 2250 4219 1831 4219 
Q 1534 4219 1204 4116 
Q 875 4013 500 3803 
L 500 4441 
Q 881 4594 1212 4672 
Q 1544 4750 1819 4750 
Q 2544 4750 2975 4387 
Q 3406 4025 3406 3419 
Q 3406 3131 3298 2873 
Q 3191 2616 2906 2266 
Q 2828 2175 2409 1742 
Q 1991 1309 1228 531 
z
" transform="scale(0.015625)"/>
       </defs>
       <use xlink:href="#DejaVuSans-2212"/>
       <use xlink:href="#DejaVuSans-32" x="83.789062"/>
       <use xlink:href="#DejaVuSans-2e" x="147.412109"/>
       <use xlink:href="#DejaVuSans-35" x="179.199219"/>
      </g>
     </g>
    </g>
    <g id="ytick_3">
     <g id="line2d_13">
      <path d="M 54.53 77.469184 
L 421.2 77.469184 
" clip-path="url(#p3803924ea3)" style="fill: none; stroke: #ffffff; stroke-width: 1.2; stroke-linecap: square"/>
     </g>
     <g id="line2d_14">
      <g>
       <use xlink:href="#m62818952b8" x="54.53" y="77.469184" style="fill: #555555; stroke: #555555; stroke-width: 0.8"/>
      </g>
     </g>
     <g id="text_3">
      <!-- 0.0 -->
      <g style="fill: #555555" transform="translate(31.626875 81.268403) scale(0.1 -0.1)">
       <use xlink:href="#DejaVuSans-30"/>
       <use xlink:href="#DejaVuSans-2e" x="63.623047"/>
       <use xlink:href="#DejaVuSans-30" x="95.410156"/>
      </g>
     </g>
    </g>
    <g id="ytick_4">
     <g id="line2d_15">
      <path d="M 54.53 54.887888 
L 421.2 54.887888 
" clip-path="url(#p3803924ea3)" style="fill: none; stroke: #ffffff; stroke-width: 1.2; stroke-linecap: square"/>
     </g>
     <g id="line2d_16">
      <g>
       <use xlink:href="#m62818952b8" x="54.53" y="54.887888" style="fill: #555555; stroke: #555555; stroke-width: 0.8"/>
      </g>
     </g>
     <g id="text_4">
      <!-- 2.5 -->
      <g style="fill: #555555" transform="translate(31.626875 58.687107) scale(0.1 -0.1)">
       <use xlink:href="#DejaVuSans-32"/>
       <use xlink:href="#DejaVuSans-2e" x="63.623047"/>
       <use xlink:href="#DejaVuSans-35" x="95.410156"/>
      </g>
     </g>
    </g>
    <g id="text_5">
     <!-- 1e9 -->
     <g style="fill: #555555" transform="translate(54.53 34.8) scale(0.1 -0.1)">
      <defs>
       <path id="DejaVuSans-31" d="M 794 531 
L 1825 531 
L 1825 4091 
L 703 3866 
L 703 4441 
L 1819 4666 
L 2450 4666 
L 2450 531 
L 3481 531 
L 3481 0 
L 794 0 
L 794 531 
z
" transform="scale(0.015625)"/>
       <path id="DejaVuSans-65" d="M 3597 1894 
L 3597 1613 
L 953 1613 
Q 991 1019 1311 708 
Q 1631 397 2203 397 
Q 2534 397 2845 478 
Q 3156 559 3463 722 
L 3463 178 
Q 3153 47 2828 -22 
Q 2503 -91 2169 -91 
Q 1331 -91 842 396 
Q 353 884 353 1716 
Q 353 2575 817 3079 
Q 1281 3584 2069 3584 
Q 2775 3584 3186 3129 
Q 3597 2675 3597 1894 
z
M 3022 2063 
Q 3016 2534 2758 2815 
Q 2500 3097 2075 3097 
Q 1594 3097 1305 2825 
Q 1016 2553 972 2059 
L 3022 2063 
z
" transform="scale(0.015625)"/>
       <path id="DejaVuSans-39" d="M 703 97 
L 703 672 
Q 941 559 1184 500 
Q 1428 441 1663 441 
Q 2288 441 2617 861 
Q 2947 1281 2994 2138 
Q 2813 1869 2534 1725 
Q 2256 1581 1919 1581 
Q 1219 1581 811 2004 
Q 403 2428 403 3163 
Q 403 3881 828 4315 
Q 1253 4750 1959 4750 
Q 2769 4750 3195 4129 
Q 3622 3509 3622 2328 
Q 3622 1225 3098 567 
Q 2575 -91 1691 -91 
Q 1453 -91 1209 -44 
Q 966 3 703 97 
z
M 1959 2075 
Q 2384 2075 2632 2365 
Q 2881 2656 2881 3163 
Q 2881 3666 2632 3958 
Q 2384 4250 1959 4250 
Q 1534 4250 1286 3958 
Q 1038 3666 1038 3163 
Q 1038 2656 1286 2365 
Q 1534 2075 1959 2075 
z
" transform="scale(0.015625)"/>
      </defs>
      <use xlink:href="#DejaVuSans-31"/>
      <use xlink:href="#DejaVuSans-65" x="63.623047"/>
      <use xlink:href="#DejaVuSans-39" x="125.146484"/>
     </g>
    </g>
   </g>
   <g id="patch_3">
    <path d="M 71.196818 77.469184 
L 80.6131 77.469184 
L 80.6131 75.654701 
L 71.196818 75.654701 
z
" clip-path="url(#p3803924ea3)" style="fill: #4477aa"/>
   </g>
   <g id="patch_4">
    <path d="M 165.359633 77.469184 
L 174.775914 77.469184 
L 174.775914 70.21125 
L 165.359633 70.21125 
z
" clip-path="url(#p3803924ea3)" style="fill: #4477aa"/>
   </g>
   <g id="patch_5">
    <path d="M 259.522447 77.469184 
L 268.938729 77.469184 
L 268.938729 61.138832 
L 259.522447 61.138832 
z
" clip-path="url(#p3803924ea3)" style="fill: #4477aa"/>
   </g>
   <g id="patch_6">
    <path d="M 353.685262 77.469184 
L 363.101543 77.469184 
L 363.101543 48.437448 
L 353.685262 48.437448 
z
" clip-path="url(#p3803924ea3)" style="fill: #4477aa"/>
   </g>
   <g id="patch_7">
    <path d="M 81.554728 77.469184 
L 90.971009 77.469184 
L 90.971009 76.510446 
L 81.554728 76.510446 
z
" clip-path="url(#p3803924ea3)" style="fill: #66ccee"/>
   </g>
   <g id="patch_8">
    <path d="M 175.717542 77.469184 
L 185.133824 77.469184 
L 185.133824 73.634231 
L 175.717542 73.634231 
z
" clip-path="url(#p3803924ea3)" style="fill: #66ccee"/>
   </g>
   <g id="patch_9">
    <path d="M 269.880357 77.469184 
L 279.296638 77.469184 
L 279.296638 68.840539 
L 269.880357 68.840539 
z
" clip-path="url(#p3803924ea3)" style="fill: #66ccee"/>
   </g>
   <g id="patch_10">
    <path d="M 364.043172 77.469184 
L 373.459453 77.469184 
L 373.459453 62.12937 
L 364.043172 62.12937 
z
" clip-path="url(#p3803924ea3)" style="fill: #66ccee"/>
   </g>
   <g id="patch_11">
    <path d="M 91.912637 77.469184 
L 101.328919 77.469184 
L 101.328919 77.941145 
L 91.912637 77.941145 
z
" clip-path="url(#p3803924ea3)" style="fill: #228833"/>
   </g>
   <g id="patch_12">
    <path d="M 186.075452 77.469184 
L 195.491733 77.469184 
L 195.491733 79.357026 
L 186.075452 79.357026 
z
" clip-path="url(#p3803924ea3)" style="fill: #228833"/>
   </g>
   <g id="patch_13">
    <path d="M 280.238267 77.469184 
L 289.654548 77.469184 
L 289.654548 81.716829 
L 280.238267 81.716829 
z
" clip-path="url(#p3803924ea3)" style="fill: #228833"/>
   </g>
   <g id="patch_14">
    <path d="M 374.401081 77.469184 
L 383.817363 77.469184 
L 383.817363 85.020552 
L 374.401081 85.020552 
z
" clip-path="url(#p3803924ea3)" style="fill: #228833"/>
   </g>
   <g id="patch_15">
    <path d="M 102.270547 77.469184 
L 111.686828 77.469184 
L 111.686828 79.369169 
L 102.270547 79.369169 
z
" clip-path="url(#p3803924ea3)" style="fill: #d4bb44"/>
   </g>
   <g id="patch_16">
    <path d="M 196.433362 77.469184 
L 205.849643 77.469184 
L 205.849643 85.069125 
L 196.433362 85.069125 
z
" clip-path="url(#p3803924ea3)" style="fill: #d4bb44"/>
   </g>
   <g id="patch_17">
    <path d="M 290.596176 77.469184 
L 300.012458 77.469184 
L 300.012458 94.569051 
L 290.596176 94.569051 
z
" clip-path="url(#p3803924ea3)" style="fill: #d4bb44"/>
   </g>
   <g id="patch_18">
    <path d="M 384.758991 77.469184 
L 394.175272 77.469184 
L 394.175272 107.868948 
L 384.758991 107.868948 
z
" clip-path="url(#p3803924ea3)" style="fill: #d4bb44"/>
   </g>
   <g id="patch_19">
    <path d="M 112.628457 77.469184 
L 122.044738 77.469184 
L 122.044738 80.224915 
L 112.628457 80.224915 
z
" clip-path="url(#p3803924ea3)" style="fill: #ee6677"/>
   </g>
   <g id="patch_20">
    <path d="M 206.791271 77.469184 
L 216.207553 77.469184 
L 216.207553 88.492106 
L 206.791271 88.492106 
z
" clip-path="url(#p3803924ea3)" style="fill: #ee6677"/>
   </g>
   <g id="patch_21">
    <path d="M 300.954086 77.469184 
L 310.370367 77.469184 
L 310.370367 102.270757 
L 300.954086 102.270757 
z
" clip-path="url(#p3803924ea3)" style="fill: #ee6677"/>
   </g>
   <g id="patch_22">
    <path d="M 395.1169 77.469184 
L 404.533182 77.469184 
L 404.533182 121.56087 
L 395.1169 121.56087 
z
" clip-path="url(#p3803924ea3)" style="fill: #ee6677"/>
   </g>
   <g id="text_6">
    <!-- MAC reduction for diff. W for CP decomposition -->
    <g transform="translate(97.230625 31.8) scale(0.12 -0.12)">
     <defs>
      <path id="DejaVuSans-4d" d="M 628 4666 
L 1569 4666 
L 2759 1491 
L 3956 4666 
L 4897 4666 
L 4897 0 
L 4281 0 
L 4281 4097 
L 3078 897 
L 2444 897 
L 1241 4097 
L 1241 0 
L 628 0 
L 628 4666 
z
" transform="scale(0.015625)"/>
      <path id="DejaVuSans-41" d="M 2188 4044 
L 1331 1722 
L 3047 1722 
L 2188 4044 
z
M 1831 4666 
L 2547 4666 
L 4325 0 
L 3669 0 
L 3244 1197 
L 1141 1197 
L 716 0 
L 50 0 
L 1831 4666 
z
" transform="scale(0.015625)"/>
      <path id="DejaVuSans-43" d="M 4122 4306 
L 4122 3641 
Q 3803 3938 3442 4084 
Q 3081 4231 2675 4231 
Q 1875 4231 1450 3742 
Q 1025 3253 1025 2328 
Q 1025 1406 1450 917 
Q 1875 428 2675 428 
Q 3081 428 3442 575 
Q 3803 722 4122 1019 
L 4122 359 
Q 3791 134 3420 21 
Q 3050 -91 2638 -91 
Q 1578 -91 968 557 
Q 359 1206 359 2328 
Q 359 3453 968 4101 
Q 1578 4750 2638 4750 
Q 3056 4750 3426 4639 
Q 3797 4528 4122 4306 
z
" transform="scale(0.015625)"/>
      <path id="DejaVuSans-20" transform="scale(0.015625)"/>
      <path id="DejaVuSans-72" d="M 2631 2963 
Q 2534 3019 2420 3045 
Q 2306 3072 2169 3072 
Q 1681 3072 1420 2755 
Q 1159 2438 1159 1844 
L 1159 0 
L 581 0 
L 581 3500 
L 1159 3500 
L 1159 2956 
Q 1341 3275 1631 3429 
Q 1922 3584 2338 3584 
Q 2397 3584 2469 3576 
Q 2541 3569 2628 3553 
L 2631 2963 
z
" transform="scale(0.015625)"/>
      <path id="DejaVuSans-64" d="M 2906 2969 
L 2906 4863 
L 3481 4863 
L 3481 0 
L 2906 0 
L 2906 525 
Q 2725 213 2448 61 
Q 2172 -91 1784 -91 
Q 1150 -91 751 415 
Q 353 922 353 1747 
Q 353 2572 751 3078 
Q 1150 3584 1784 3584 
Q 2172 3584 2448 3432 
Q 2725 3281 2906 2969 
z
M 947 1747 
Q 947 1113 1208 752 
Q 1469 391 1925 391 
Q 2381 391 2643 752 
Q 2906 1113 2906 1747 
Q 2906 2381 2643 2742 
Q 2381 3103 1925 3103 
Q 1469 3103 1208 2742 
Q 947 2381 947 1747 
z
" transform="scale(0.015625)"/>
      <path id="DejaVuSans-75" d="M 544 1381 
L 544 3500 
L 1119 3500 
L 1119 1403 
Q 1119 906 1312 657 
Q 1506 409 1894 409 
Q 2359 409 2629 706 
Q 2900 1003 2900 1516 
L 2900 3500 
L 3475 3500 
L 3475 0 
L 2900 0 
L 2900 538 
Q 2691 219 2414 64 
Q 2138 -91 1772 -91 
Q 1169 -91 856 284 
Q 544 659 544 1381 
z
M 1991 3584 
L 1991 3584 
z
" transform="scale(0.015625)"/>
      <path id="DejaVuSans-63" d="M 3122 3366 
L 3122 2828 
Q 2878 2963 2633 3030 
Q 2388 3097 2138 3097 
Q 1578 3097 1268 2742 
Q 959 2388 959 1747 
Q 959 1106 1268 751 
Q 1578 397 2138 397 
Q 2388 397 2633 464 
Q 2878 531 3122 666 
L 3122 134 
Q 2881 22 2623 -34 
Q 2366 -91 2075 -91 
Q 1284 -91 818 406 
Q 353 903 353 1747 
Q 353 2603 823 3093 
Q 1294 3584 2113 3584 
Q 2378 3584 2631 3529 
Q 2884 3475 3122 3366 
z
" transform="scale(0.015625)"/>
      <path id="DejaVuSans-74" d="M 1172 4494 
L 1172 3500 
L 2356 3500 
L 2356 3053 
L 1172 3053 
L 1172 1153 
Q 1172 725 1289 603 
Q 1406 481 1766 481 
L 2356 481 
L 2356 0 
L 1766 0 
Q 1100 0 847 248 
Q 594 497 594 1153 
L 594 3053 
L 172 3053 
L 172 3500 
L 594 3500 
L 594 4494 
L 1172 4494 
z
" transform="scale(0.015625)"/>
      <path id="DejaVuSans-69" d="M 603 3500 
L 1178 3500 
L 1178 0 
L 603 0 
L 603 3500 
z
M 603 4863 
L 1178 4863 
L 1178 4134 
L 603 4134 
L 603 4863 
z
" transform="scale(0.015625)"/>
      <path id="DejaVuSans-6f" d="M 1959 3097 
Q 1497 3097 1228 2736 
Q 959 2375 959 1747 
Q 959 1119 1226 758 
Q 1494 397 1959 397 
Q 2419 397 2687 759 
Q 2956 1122 2956 1747 
Q 2956 2369 2687 2733 
Q 2419 3097 1959 3097 
z
M 1959 3584 
Q 2709 3584 3137 3096 
Q 3566 2609 3566 1747 
Q 3566 888 3137 398 
Q 2709 -91 1959 -91 
Q 1206 -91 779 398 
Q 353 888 353 1747 
Q 353 2609 779 3096 
Q 1206 3584 1959 3584 
z
" transform="scale(0.015625)"/>
      <path id="DejaVuSans-6e" d="M 3513 2113 
L 3513 0 
L 2938 0 
L 2938 2094 
Q 2938 2591 2744 2837 
Q 2550 3084 2163 3084 
Q 1697 3084 1428 2787 
Q 1159 2491 1159 1978 
L 1159 0 
L 581 0 
L 581 3500 
L 1159 3500 
L 1159 2956 
Q 1366 3272 1645 3428 
Q 1925 3584 2291 3584 
Q 2894 3584 3203 3211 
Q 3513 2838 3513 2113 
z
" transform="scale(0.015625)"/>
      <path id="DejaVuSans-66" d="M 2375 4863 
L 2375 4384 
L 1825 4384 
Q 1516 4384 1395 4259 
Q 1275 4134 1275 3809 
L 1275 3500 
L 2222 3500 
L 2222 3053 
L 1275 3053 
L 1275 0 
L 697 0 
L 697 3053 
L 147 3053 
L 147 3500 
L 697 3500 
L 697 3744 
Q 697 4328 969 4595 
Q 1241 4863 1831 4863 
L 2375 4863 
z
" transform="scale(0.015625)"/>
      <path id="DejaVuSans-57" d="M 213 4666 
L 850 4666 
L 1831 722 
L 2809 4666 
L 3519 4666 
L 4500 722 
L 5478 4666 
L 6119 4666 
L 4947 0 
L 4153 0 
L 3169 4050 
L 2175 0 
L 1381 0 
L 213 4666 
z
" transform="scale(0.015625)"/>
      <path id="DejaVuSans-50" d="M 1259 4147 
L 1259 2394 
L 2053 2394 
Q 2494 2394 2734 2622 
Q 2975 2850 2975 3272 
Q 2975 3691 2734 3919 
Q 2494 4147 2053 4147 
L 1259 4147 
z
M 628 4666 
L 2053 4666 
Q 2838 4666 3239 4311 
Q 3641 3956 3641 3272 
Q 3641 2581 3239 2228 
Q 2838 1875 2053 1875 
L 1259 1875 
L 1259 0 
L 628 0 
L 628 4666 
z
" transform="scale(0.015625)"/>
      <path id="DejaVuSans-6d" d="M 3328 2828 
Q 3544 3216 3844 3400 
Q 4144 3584 4550 3584 
Q 5097 3584 5394 3201 
Q 5691 2819 5691 2113 
L 5691 0 
L 5113 0 
L 5113 2094 
Q 5113 2597 4934 2840 
Q 4756 3084 4391 3084 
Q 3944 3084 3684 2787 
Q 3425 2491 3425 1978 
L 3425 0 
L 2847 0 
L 2847 2094 
Q 2847 2600 2669 2842 
Q 2491 3084 2119 3084 
Q 1678 3084 1418 2786 
Q 1159 2488 1159 1978 
L 1159 0 
L 581 0 
L 581 3500 
L 1159 3500 
L 1159 2956 
Q 1356 3278 1631 3431 
Q 1906 3584 2284 3584 
Q 2666 3584 2933 3390 
Q 3200 3197 3328 2828 
z
" transform="scale(0.015625)"/>
      <path id="DejaVuSans-70" d="M 1159 525 
L 1159 -1331 
L 581 -1331 
L 581 3500 
L 1159 3500 
L 1159 2969 
Q 1341 3281 1617 3432 
Q 1894 3584 2278 3584 
Q 2916 3584 3314 3078 
Q 3713 2572 3713 1747 
Q 3713 922 3314 415 
Q 2916 -91 2278 -91 
Q 1894 -91 1617 61 
Q 1341 213 1159 525 
z
M 3116 1747 
Q 3116 2381 2855 2742 
Q 2594 3103 2138 3103 
Q 1681 3103 1420 2742 
Q 1159 2381 1159 1747 
Q 1159 1113 1420 752 
Q 1681 391 2138 391 
Q 2594 391 2855 752 
Q 3116 1113 3116 1747 
z
" transform="scale(0.015625)"/>
      <path id="DejaVuSans-73" d="M 2834 3397 
L 2834 2853 
Q 2591 2978 2328 3040 
Q 2066 3103 1784 3103 
Q 1356 3103 1142 2972 
Q 928 2841 928 2578 
Q 928 2378 1081 2264 
Q 1234 2150 1697 2047 
L 1894 2003 
Q 2506 1872 2764 1633 
Q 3022 1394 3022 966 
Q 3022 478 2636 193 
Q 2250 -91 1575 -91 
Q 1294 -91 989 -36 
Q 684 19 347 128 
L 347 722 
Q 666 556 975 473 
Q 1284 391 1588 391 
Q 1994 391 2212 530 
Q 2431 669 2431 922 
Q 2431 1156 2273 1281 
Q 2116 1406 1581 1522 
L 1381 1569 
Q 847 1681 609 1914 
Q 372 2147 372 2553 
Q 372 3047 722 3315 
Q 1072 3584 1716 3584 
Q 2034 3584 2315 3537 
Q 2597 3491 2834 3397 
z
" transform="scale(0.015625)"/>
     </defs>
     <use xlink:href="#DejaVuSans-4d"/>
     <use xlink:href="#DejaVuSans-41" x="86.279297"/>
     <use xlink:href="#DejaVuSans-43" x="152.9375"/>
     <use xlink:href="#DejaVuSans-20" x="222.761719"/>
     <use xlink:href="#DejaVuSans-72" x="254.548828"/>
     <use xlink:href="#DejaVuSans-65" x="293.412109"/>
     <use xlink:href="#DejaVuSans-64" x="354.935547"/>
     <use xlink:href="#DejaVuSans-75" x="418.412109"/>
     <use xlink:href="#DejaVuSans-63" x="481.791016"/>
     <use xlink:href="#DejaVuSans-74" x="536.771484"/>
     <use xlink:href="#DejaVuSans-69" x="575.980469"/>
     <use xlink:href="#DejaVuSans-6f" x="603.763672"/>
     <use xlink:href="#DejaVuSans-6e" x="664.945312"/>
     <use xlink:href="#DejaVuSans-20" x="728.324219"/>
     <use xlink:href="#DejaVuSans-66" x="760.111328"/>
     <use xlink:href="#DejaVuSans-6f" x="795.316406"/>
     <use xlink:href="#DejaVuSans-72" x="856.498047"/>
     <use xlink:href="#DejaVuSans-20" x="897.611328"/>
     <use xlink:href="#DejaVuSans-64" x="929.398438"/>
     <use xlink:href="#DejaVuSans-69" x="992.875"/>
     <use xlink:href="#DejaVuSans-66" x="1020.658203"/>
     <use xlink:href="#DejaVuSans-66" x="1055.863281"/>
     <use xlink:href="#DejaVuSans-2e" x="1083.818359"/>
     <use xlink:href="#DejaVuSans-20" x="1115.605469"/>
     <use xlink:href="#DejaVuSans-57" x="1147.392578"/>
     <use xlink:href="#DejaVuSans-20" x="1246.269531"/>
     <use xlink:href="#DejaVuSans-66" x="1278.056641"/>
     <use xlink:href="#DejaVuSans-6f" x="1313.261719"/>
     <use xlink:href="#DejaVuSans-72" x="1374.443359"/>
     <use xlink:href="#DejaVuSans-20" x="1415.556641"/>
     <use xlink:href="#DejaVuSans-43" x="1447.34375"/>
     <use xlink:href="#DejaVuSans-50" x="1517.167969"/>
     <use xlink:href="#DejaVuSans-20" x="1577.470703"/>
     <use xlink:href="#DejaVuSans-64" x="1609.257812"/>
     <use xlink:href="#DejaVuSans-65" x="1672.734375"/>
     <use xlink:href="#DejaVuSans-63" x="1734.257812"/>
     <use xlink:href="#DejaVuSans-6f" x="1789.238281"/>
     <use xlink:href="#DejaVuSans-6d" x="1850.419922"/>
     <use xlink:href="#DejaVuSans-70" x="1947.832031"/>
     <use xlink:href="#DejaVuSans-6f" x="2011.308594"/>
     <use xlink:href="#DejaVuSans-73" x="2072.490234"/>
     <use xlink:href="#DejaVuSans-69" x="2124.589844"/>
     <use xlink:href="#DejaVuSans-74" x="2152.373047"/>
     <use xlink:href="#DejaVuSans-69" x="2191.582031"/>
     <use xlink:href="#DejaVuSans-6f" x="2219.365234"/>
     <use xlink:href="#DejaVuSans-6e" x="2280.546875"/>
    </g>
   </g>
  </g>
  <g id="axes_2">
   <g id="patch_23">
    <path d="M 54.53 252.013687 
L 421.2 252.013687 
L 421.2 166.446313 
L 54.53 166.446313 
z
" style="fill: #ebebeb"/>
   </g>
   <g id="matplotlib.axis_3">
    <g id="xtick_5">
     <g id="line2d_17">
      <path d="M 96.620778 252.013687 
L 96.620778 166.446313 
" clip-path="url(#p06284552a8)" style="fill: none; stroke: #ffffff; stroke-width: 1.2; stroke-linecap: square"/>
     </g>
     <g id="line2d_18">
      <g>
       <use xlink:href="#m0272692930" x="96.620778" y="252.013687" style="fill: #555555; stroke: #555555; stroke-width: 0.8"/>
      </g>
     </g>
    </g>
    <g id="xtick_6">
     <g id="line2d_19">
      <path d="M 190.783593 252.013687 
L 190.783593 166.446313 
" clip-path="url(#p06284552a8)" style="fill: none; stroke: #ffffff; stroke-width: 1.2; stroke-linecap: square"/>
     </g>
     <g id="line2d_20">
      <g>
       <use xlink:href="#m0272692930" x="190.783593" y="252.013687" style="fill: #555555; stroke: #555555; stroke-width: 0.8"/>
      </g>
     </g>
    </g>
    <g id="xtick_7">
     <g id="line2d_21">
      <path d="M 284.946407 252.013687 
L 284.946407 166.446313 
" clip-path="url(#p06284552a8)" style="fill: none; stroke: #ffffff; stroke-width: 1.2; stroke-linecap: square"/>
     </g>
     <g id="line2d_22">
      <g>
       <use xlink:href="#m0272692930" x="284.946407" y="252.013687" style="fill: #555555; stroke: #555555; stroke-width: 0.8"/>
      </g>
     </g>
    </g>
    <g id="xtick_8">
     <g id="line2d_23">
      <path d="M 379.109222 252.013687 
L 379.109222 166.446313 
" clip-path="url(#p06284552a8)" style="fill: none; stroke: #ffffff; stroke-width: 1.2; stroke-linecap: square"/>
     </g>
     <g id="line2d_24">
      <g>
       <use xlink:href="#m0272692930" x="379.109222" y="252.013687" style="fill: #555555; stroke: #555555; stroke-width: 0.8"/>
      </g>
     </g>
    </g>
   </g>
   <g id="matplotlib.axis_4">
    <g id="ytick_5">
     <g id="line2d_25">
      <path d="M 54.53 251.27809 
L 421.2 251.27809 
" clip-path="url(#p06284552a8)" style="fill: none; stroke: #ffffff; stroke-width: 1.2; stroke-linecap: square"/>
     </g>
     <g id="line2d_26">
      <g>
       <use xlink:href="#m62818952b8" x="54.53" y="251.27809" style="fill: #555555; stroke: #555555; stroke-width: 0.8"/>
      </g>
     </g>
     <g id="text_7">
      <!-- −5.0 -->
      <g style="fill: #555555" transform="translate(23.247187 255.077309) scale(0.1 -0.1)">
       <use xlink:href="#DejaVuSans-2212"/>
       <use xlink:href="#DejaVuSans-35" x="83.789062"/>
       <use xlink:href="#DejaVuSans-2e" x="147.412109"/>
       <use xlink:href="#DejaVuSans-30" x="179.199219"/>
      </g>
     </g>
    </g>
    <g id="ytick_6">
     <g id="line2d_27">
      <path d="M 54.53 228.696794 
L 421.2 228.696794 
" clip-path="url(#p06284552a8)" style="fill: none; stroke: #ffffff; stroke-width: 1.2; stroke-linecap: square"/>
     </g>
     <g id="line2d_28">
      <g>
       <use xlink:href="#m62818952b8" x="54.53" y="228.696794" style="fill: #555555; stroke: #555555; stroke-width: 0.8"/>
      </g>
     </g>
     <g id="text_8">
      <!-- −2.5 -->
      <g style="fill: #555555" transform="translate(23.247187 232.496012) scale(0.1 -0.1)">
       <use xlink:href="#DejaVuSans-2212"/>
       <use xlink:href="#DejaVuSans-32" x="83.789062"/>
       <use xlink:href="#DejaVuSans-2e" x="147.412109"/>
       <use xlink:href="#DejaVuSans-35" x="179.199219"/>
      </g>
     </g>
    </g>
    <g id="ytick_7">
     <g id="line2d_29">
      <path d="M 54.53 206.115497 
L 421.2 206.115497 
" clip-path="url(#p06284552a8)" style="fill: none; stroke: #ffffff; stroke-width: 1.2; stroke-linecap: square"/>
     </g>
     <g id="line2d_30">
      <g>
       <use xlink:href="#m62818952b8" x="54.53" y="206.115497" style="fill: #555555; stroke: #555555; stroke-width: 0.8"/>
      </g>
     </g>
     <g id="text_9">
      <!-- 0.0 -->
      <g style="fill: #555555" transform="translate(31.626875 209.914716) scale(0.1 -0.1)">
       <use xlink:href="#DejaVuSans-30"/>
       <use xlink:href="#DejaVuSans-2e" x="63.623047"/>
       <use xlink:href="#DejaVuSans-30" x="95.410156"/>
      </g>
     </g>
    </g>
    <g id="ytick_8">
     <g id="line2d_31">
      <path d="M 54.53 183.534201 
L 421.2 183.534201 
" clip-path="url(#p06284552a8)" style="fill: none; stroke: #ffffff; stroke-width: 1.2; stroke-linecap: square"/>
     </g>
     <g id="line2d_32">
      <g>
       <use xlink:href="#m62818952b8" x="54.53" y="183.534201" style="fill: #555555; stroke: #555555; stroke-width: 0.8"/>
      </g>
     </g>
     <g id="text_10">
      <!-- 2.5 -->
      <g style="fill: #555555" transform="translate(31.626875 187.33342) scale(0.1 -0.1)">
       <use xlink:href="#DejaVuSans-32"/>
       <use xlink:href="#DejaVuSans-2e" x="63.623047"/>
       <use xlink:href="#DejaVuSans-35" x="95.410156"/>
      </g>
     </g>
    </g>
    <g id="text_11">
     <!-- 1e9 -->
     <g style="fill: #555555" transform="translate(54.53 163.446313) scale(0.1 -0.1)">
      <use xlink:href="#DejaVuSans-31"/>
      <use xlink:href="#DejaVuSans-65" x="63.623047"/>
      <use xlink:href="#DejaVuSans-39" x="125.146484"/>
     </g>
    </g>
   </g>
   <g id="patch_24">
    <path d="M 71.196818 206.115497 
L 80.6131 206.115497 
L 80.6131 203.851967 
L 71.196818 203.851967 
z
" clip-path="url(#p06284552a8)" style="fill: #4477aa"/>
   </g>
   <g id="patch_25">
    <path d="M 165.359633 206.115497 
L 174.775914 206.115497 
L 174.775914 196.751553 
L 165.359633 196.751553 
z
" clip-path="url(#p06284552a8)" style="fill: #4477aa"/>
   </g>
   <g id="patch_26">
    <path d="M 259.522447 206.115497 
L 268.938729 206.115497 
L 268.938729 184.88517 
L 259.522447 184.88517 
z
" clip-path="url(#p06284552a8)" style="fill: #4477aa"/>
   </g>
   <g id="patch_27">
    <path d="M 353.685262 206.115497 
L 363.101543 206.115497 
L 363.101543 168.252817 
L 353.685262 168.252817 
z
" clip-path="url(#p06284552a8)" style="fill: #4477aa"/>
   </g>
   <g id="patch_28">
    <path d="M 81.554728 206.115497 
L 90.971009 206.115497 
L 90.971009 204.545963 
L 81.554728 204.545963 
z
" clip-path="url(#p06284552a8)" style="fill: #66ccee"/>
   </g>
   <g id="patch_29">
    <path d="M 175.717542 206.115497 
L 185.133824 206.115497 
L 185.133824 197.492367 
L 175.717542 197.492367 
z
" clip-path="url(#p06284552a8)" style="fill: #66ccee"/>
   </g>
   <g id="patch_30">
    <path d="M 269.880357 206.115497 
L 279.296638 206.115497 
L 279.296638 185.684478 
L 269.880357 185.684478 
z
" clip-path="url(#p06284552a8)" style="fill: #66ccee"/>
   </g>
   <g id="patch_31">
    <path d="M 364.043172 206.115497 
L 373.459453 206.115497 
L 373.459453 169.122297 
L 364.043172 169.122297 
z
" clip-path="url(#p06284552a8)" style="fill: #66ccee"/>
   </g>
   <g id="patch_32">
    <path d="M 91.912637 206.115497 
L 101.328919 206.115497 
L 101.328919 205.060754 
L 91.912637 205.060754 
z
" clip-path="url(#p06284552a8)" style="fill: #228833"/>
   </g>
   <g id="patch_33">
    <path d="M 186.075452 206.115497 
L 195.491733 206.115497 
L 195.491733 198.034755 
L 186.075452 198.034755 
z
" clip-path="url(#p06284552a8)" style="fill: #228833"/>
   </g>
   <g id="patch_34">
    <path d="M 280.238267 206.115497 
L 289.654548 206.115497 
L 289.654548 186.257669 
L 280.238267 186.257669 
z
" clip-path="url(#p06284552a8)" style="fill: #228833"/>
   </g>
   <g id="patch_35">
    <path d="M 374.401081 206.115497 
L 383.817363 206.115497 
L 383.817363 169.729495 
L 374.401081 169.729495 
z
" clip-path="url(#p06284552a8)" style="fill: #228833"/>
   </g>
   <g id="patch_36">
    <path d="M 102.270547 206.115497 
L 111.686828 206.115497 
L 111.686828 207.421365 
L 102.270547 207.421365 
z
" clip-path="url(#p06284552a8)" style="fill: #d4bb44"/>
   </g>
   <g id="patch_37">
    <path d="M 196.433362 206.115497 
L 205.849643 206.115497 
L 205.849643 200.430508 
L 196.433362 200.430508 
z
" clip-path="url(#p06284552a8)" style="fill: #d4bb44"/>
   </g>
   <g id="patch_38">
    <path d="M 290.596176 206.115497 
L 300.012458 206.115497 
L 300.012458 188.702717 
L 290.596176 188.702717 
z
" clip-path="url(#p06284552a8)" style="fill: #d4bb44"/>
   </g>
   <g id="patch_39">
    <path d="M 384.758991 206.115497 
L 394.175272 206.115497 
L 394.175272 172.237993 
L 384.758991 172.237993 
z
" clip-path="url(#p06284552a8)" style="fill: #d4bb44"/>
   </g>
   <g id="patch_40">
    <path d="M 112.628457 206.115497 
L 122.044738 206.115497 
L 122.044738 207.852233 
L 112.628457 207.852233 
z
" clip-path="url(#p06284552a8)" style="fill: #ee6677"/>
   </g>
   <g id="patch_41">
    <path d="M 206.791271 206.115497 
L 216.207553 206.115497 
L 216.207553 200.869947 
L 206.791271 200.869947 
z
" clip-path="url(#p06284552a8)" style="fill: #ee6677"/>
   </g>
   <g id="patch_42">
    <path d="M 300.954086 206.115497 
L 310.370367 206.115497 
L 310.370367 189.152102 
L 300.954086 189.152102 
z
" clip-path="url(#p06284552a8)" style="fill: #ee6677"/>
   </g>
   <g id="patch_43">
    <path d="M 395.1169 206.115497 
L 404.533182 206.115497 
L 404.533182 172.698696 
L 395.1169 172.698696 
z
" clip-path="url(#p06284552a8)" style="fill: #ee6677"/>
   </g>
   <g id="text_12">
    <!-- MAC reduction for diff. W for Tucker decomposition -->
    <g transform="translate(85.764062 160.446313) scale(0.12 -0.12)">
     <defs>
      <path id="DejaVuSans-54" d="M -19 4666 
L 3928 4666 
L 3928 4134 
L 2272 4134 
L 2272 0 
L 1638 0 
L 1638 4134 
L -19 4134 
L -19 4666 
z
" transform="scale(0.015625)"/>
      <path id="DejaVuSans-6b" d="M 581 4863 
L 1159 4863 
L 1159 1991 
L 2875 3500 
L 3609 3500 
L 1753 1863 
L 3688 0 
L 2938 0 
L 1159 1709 
L 1159 0 
L 581 0 
L 581 4863 
z
" transform="scale(0.015625)"/>
     </defs>
     <use xlink:href="#DejaVuSans-4d"/>
     <use xlink:href="#DejaVuSans-41" x="86.279297"/>
     <use xlink:href="#DejaVuSans-43" x="152.9375"/>
     <use xlink:href="#DejaVuSans-20" x="222.761719"/>
     <use xlink:href="#DejaVuSans-72" x="254.548828"/>
     <use xlink:href="#DejaVuSans-65" x="293.412109"/>
     <use xlink:href="#DejaVuSans-64" x="354.935547"/>
     <use xlink:href="#DejaVuSans-75" x="418.412109"/>
     <use xlink:href="#DejaVuSans-63" x="481.791016"/>
     <use xlink:href="#DejaVuSans-74" x="536.771484"/>
     <use xlink:href="#DejaVuSans-69" x="575.980469"/>
     <use xlink:href="#DejaVuSans-6f" x="603.763672"/>
     <use xlink:href="#DejaVuSans-6e" x="664.945312"/>
     <use xlink:href="#DejaVuSans-20" x="728.324219"/>
     <use xlink:href="#DejaVuSans-66" x="760.111328"/>
     <use xlink:href="#DejaVuSans-6f" x="795.316406"/>
     <use xlink:href="#DejaVuSans-72" x="856.498047"/>
     <use xlink:href="#DejaVuSans-20" x="897.611328"/>
     <use xlink:href="#DejaVuSans-64" x="929.398438"/>
     <use xlink:href="#DejaVuSans-69" x="992.875"/>
     <use xlink:href="#DejaVuSans-66" x="1020.658203"/>
     <use xlink:href="#DejaVuSans-66" x="1055.863281"/>
     <use xlink:href="#DejaVuSans-2e" x="1083.818359"/>
     <use xlink:href="#DejaVuSans-20" x="1115.605469"/>
     <use xlink:href="#DejaVuSans-57" x="1147.392578"/>
     <use xlink:href="#DejaVuSans-20" x="1246.269531"/>
     <use xlink:href="#DejaVuSans-66" x="1278.056641"/>
     <use xlink:href="#DejaVuSans-6f" x="1313.261719"/>
     <use xlink:href="#DejaVuSans-72" x="1374.443359"/>
     <use xlink:href="#DejaVuSans-20" x="1415.556641"/>
     <use xlink:href="#DejaVuSans-54" x="1447.34375"/>
     <use xlink:href="#DejaVuSans-75" x="1493.302734"/>
     <use xlink:href="#DejaVuSans-63" x="1556.681641"/>
     <use xlink:href="#DejaVuSans-6b" x="1611.662109"/>
     <use xlink:href="#DejaVuSans-65" x="1665.947266"/>
     <use xlink:href="#DejaVuSans-72" x="1727.470703"/>
     <use xlink:href="#DejaVuSans-20" x="1768.583984"/>
     <use xlink:href="#DejaVuSans-64" x="1800.371094"/>
     <use xlink:href="#DejaVuSans-65" x="1863.847656"/>
     <use xlink:href="#DejaVuSans-63" x="1925.371094"/>
     <use xlink:href="#DejaVuSans-6f" x="1980.351562"/>
     <use xlink:href="#DejaVuSans-6d" x="2041.533203"/>
     <use xlink:href="#DejaVuSans-70" x="2138.945312"/>
     <use xlink:href="#DejaVuSans-6f" x="2202.421875"/>
     <use xlink:href="#DejaVuSans-73" x="2263.603516"/>
     <use xlink:href="#DejaVuSans-69" x="2315.703125"/>
     <use xlink:href="#DejaVuSans-74" x="2343.486328"/>
     <use xlink:href="#DejaVuSans-69" x="2382.695312"/>
     <use xlink:href="#DejaVuSans-6f" x="2410.478516"/>
     <use xlink:href="#DejaVuSans-6e" x="2471.660156"/>
    </g>
   </g>
  </g>
  <g id="axes_3">
   <g id="patch_44">
    <path d="M 54.53 380.66 
L 421.2 380.66 
L 421.2 295.092626 
L 54.53 295.092626 
z
" style="fill: #ebebeb"/>
   </g>
   <g id="matplotlib.axis_5">
    <g id="xtick_9">
     <g id="line2d_33">
      <path d="M 96.620778 380.66 
L 96.620778 295.092626 
" clip-path="url(#pff6eb96ce0)" style="fill: none; stroke: #ffffff; stroke-width: 1.2; stroke-linecap: square"/>
     </g>
     <g id="line2d_34">
      <g>
       <use xlink:href="#m0272692930" x="96.620778" y="380.66" style="fill: #555555; stroke: #555555; stroke-width: 0.8"/>
      </g>
     </g>
     <g id="text_13">
      <!-- 2 -->
      <g style="fill: #555555" transform="translate(93.439528 401.758437) scale(0.1 -0.1)">
       <use xlink:href="#DejaVuSans-32"/>
      </g>
     </g>
    </g>
    <g id="xtick_10">
     <g id="line2d_35">
      <path d="M 190.783593 380.66 
L 190.783593 295.092626 
" clip-path="url(#pff6eb96ce0)" style="fill: none; stroke: #ffffff; stroke-width: 1.2; stroke-linecap: square"/>
     </g>
     <g id="line2d_36">
      <g>
       <use xlink:href="#m0272692930" x="190.783593" y="380.66" style="fill: #555555; stroke: #555555; stroke-width: 0.8"/>
      </g>
     </g>
     <g id="text_14">
      <!-- 4 -->
      <g style="fill: #555555" transform="translate(187.602343 401.758437) scale(0.1 -0.1)">
       <defs>
        <path id="DejaVuSans-34" d="M 2419 4116 
L 825 1625 
L 2419 1625 
L 2419 4116 
z
M 2253 4666 
L 3047 4666 
L 3047 1625 
L 3713 1625 
L 3713 1100 
L 3047 1100 
L 3047 0 
L 2419 0 
L 2419 1100 
L 313 1100 
L 313 1709 
L 2253 4666 
z
" transform="scale(0.015625)"/>
       </defs>
       <use xlink:href="#DejaVuSans-34"/>
      </g>
     </g>
    </g>
    <g id="xtick_11">
     <g id="line2d_37">
      <path d="M 284.946407 380.66 
L 284.946407 295.092626 
" clip-path="url(#pff6eb96ce0)" style="fill: none; stroke: #ffffff; stroke-width: 1.2; stroke-linecap: square"/>
     </g>
     <g id="line2d_38">
      <g>
       <use xlink:href="#m0272692930" x="284.946407" y="380.66" style="fill: #555555; stroke: #555555; stroke-width: 0.8"/>
      </g>
     </g>
     <g id="text_15">
      <!-- 6 -->
      <g style="fill: #555555" transform="translate(281.765157 401.758437) scale(0.1 -0.1)">
       <defs>
        <path id="DejaVuSans-36" d="M 2113 2584 
Q 1688 2584 1439 2293 
Q 1191 2003 1191 1497 
Q 1191 994 1439 701 
Q 1688 409 2113 409 
Q 2538 409 2786 701 
Q 3034 994 3034 1497 
Q 3034 2003 2786 2293 
Q 2538 2584 2113 2584 
z
M 3366 4563 
L 3366 3988 
Q 3128 4100 2886 4159 
Q 2644 4219 2406 4219 
Q 1781 4219 1451 3797 
Q 1122 3375 1075 2522 
Q 1259 2794 1537 2939 
Q 1816 3084 2150 3084 
Q 2853 3084 3261 2657 
Q 3669 2231 3669 1497 
Q 3669 778 3244 343 
Q 2819 -91 2113 -91 
Q 1303 -91 875 529 
Q 447 1150 447 2328 
Q 447 3434 972 4092 
Q 1497 4750 2381 4750 
Q 2619 4750 2861 4703 
Q 3103 4656 3366 4563 
z
" transform="scale(0.015625)"/>
       </defs>
       <use xlink:href="#DejaVuSans-36"/>
      </g>
     </g>
    </g>
    <g id="xtick_12">
     <g id="line2d_39">
      <path d="M 379.109222 380.66 
L 379.109222 295.092626 
" clip-path="url(#pff6eb96ce0)" style="fill: none; stroke: #ffffff; stroke-width: 1.2; stroke-linecap: square"/>
     </g>
     <g id="line2d_40">
      <g>
       <use xlink:href="#m0272692930" x="379.109222" y="380.66" style="fill: #555555; stroke: #555555; stroke-width: 0.8"/>
      </g>
     </g>
     <g id="text_16">
      <!-- 8 -->
      <g style="fill: #555555" transform="translate(375.927972 401.758437) scale(0.1 -0.1)">
       <defs>
        <path id="DejaVuSans-38" d="M 2034 2216 
Q 1584 2216 1326 1975 
Q 1069 1734 1069 1313 
Q 1069 891 1326 650 
Q 1584 409 2034 409 
Q 2484 409 2743 651 
Q 3003 894 3003 1313 
Q 3003 1734 2745 1975 
Q 2488 2216 2034 2216 
z
M 1403 2484 
Q 997 2584 770 2862 
Q 544 3141 544 3541 
Q 544 4100 942 4425 
Q 1341 4750 2034 4750 
Q 2731 4750 3128 4425 
Q 3525 4100 3525 3541 
Q 3525 3141 3298 2862 
Q 3072 2584 2669 2484 
Q 3125 2378 3379 2068 
Q 3634 1759 3634 1313 
Q 3634 634 3220 271 
Q 2806 -91 2034 -91 
Q 1263 -91 848 271 
Q 434 634 434 1313 
Q 434 1759 690 2068 
Q 947 2378 1403 2484 
z
M 1172 3481 
Q 1172 3119 1398 2916 
Q 1625 2713 2034 2713 
Q 2441 2713 2670 2916 
Q 2900 3119 2900 3481 
Q 2900 3844 2670 4047 
Q 2441 4250 2034 4250 
Q 1625 4250 1398 4047 
Q 1172 3844 1172 3481 
z
" transform="scale(0.015625)"/>
       </defs>
       <use xlink:href="#DejaVuSans-38"/>
      </g>
     </g>
    </g>
    <g id="text_17">
     <!-- Feature size -->
     <g transform="translate(201.656875 416.95625) scale(0.12 -0.12)">
      <defs>
       <path id="DejaVuSans-46" d="M 628 4666 
L 3309 4666 
L 3309 4134 
L 1259 4134 
L 1259 2759 
L 3109 2759 
L 3109 2228 
L 1259 2228 
L 1259 0 
L 628 0 
L 628 4666 
z
" transform="scale(0.015625)"/>
       <path id="DejaVuSans-61" d="M 2194 1759 
Q 1497 1759 1228 1600 
Q 959 1441 959 1056 
Q 959 750 1161 570 
Q 1363 391 1709 391 
Q 2188 391 2477 730 
Q 2766 1069 2766 1631 
L 2766 1759 
L 2194 1759 
z
M 3341 1997 
L 3341 0 
L 2766 0 
L 2766 531 
Q 2569 213 2275 61 
Q 1981 -91 1556 -91 
Q 1019 -91 701 211 
Q 384 513 384 1019 
Q 384 1609 779 1909 
Q 1175 2209 1959 2209 
L 2766 2209 
L 2766 2266 
Q 2766 2663 2505 2880 
Q 2244 3097 1772 3097 
Q 1472 3097 1187 3025 
Q 903 2953 641 2809 
L 641 3341 
Q 956 3463 1253 3523 
Q 1550 3584 1831 3584 
Q 2591 3584 2966 3190 
Q 3341 2797 3341 1997 
z
" transform="scale(0.015625)"/>
       <path id="DejaVuSans-7a" d="M 353 3500 
L 3084 3500 
L 3084 2975 
L 922 459 
L 3084 459 
L 3084 0 
L 275 0 
L 275 525 
L 2438 3041 
L 353 3041 
L 353 3500 
z
" transform="scale(0.015625)"/>
      </defs>
      <use xlink:href="#DejaVuSans-46"/>
      <use xlink:href="#DejaVuSans-65" x="52.019531"/>
      <use xlink:href="#DejaVuSans-61" x="113.542969"/>
      <use xlink:href="#DejaVuSans-74" x="174.822266"/>
      <use xlink:href="#DejaVuSans-75" x="214.03125"/>
      <use xlink:href="#DejaVuSans-72" x="277.410156"/>
      <use xlink:href="#DejaVuSans-65" x="316.273438"/>
      <use xlink:href="#DejaVuSans-20" x="377.796875"/>
      <use xlink:href="#DejaVuSans-73" x="409.583984"/>
      <use xlink:href="#DejaVuSans-69" x="461.683594"/>
      <use xlink:href="#DejaVuSans-7a" x="489.466797"/>
      <use xlink:href="#DejaVuSans-65" x="541.957031"/>
     </g>
    </g>
   </g>
   <g id="matplotlib.axis_6">
    <g id="ytick_9">
     <g id="line2d_41">
      <path d="M 54.53 379.924403 
L 421.2 379.924403 
" clip-path="url(#pff6eb96ce0)" style="fill: none; stroke: #ffffff; stroke-width: 1.2; stroke-linecap: square"/>
     </g>
     <g id="line2d_42">
      <g>
       <use xlink:href="#m62818952b8" x="54.53" y="379.924403" style="fill: #555555; stroke: #555555; stroke-width: 0.8"/>
      </g>
     </g>
     <g id="text_18">
      <!-- −5.0 -->
      <g style="fill: #555555" transform="translate(23.247187 383.723622) scale(0.1 -0.1)">
       <use xlink:href="#DejaVuSans-2212"/>
       <use xlink:href="#DejaVuSans-35" x="83.789062"/>
       <use xlink:href="#DejaVuSans-2e" x="147.412109"/>
       <use xlink:href="#DejaVuSans-30" x="179.199219"/>
      </g>
     </g>
    </g>
    <g id="ytick_10">
     <g id="line2d_43">
      <path d="M 54.53 357.343107 
L 421.2 357.343107 
" clip-path="url(#pff6eb96ce0)" style="fill: none; stroke: #ffffff; stroke-width: 1.2; stroke-linecap: square"/>
     </g>
     <g id="line2d_44">
      <g>
       <use xlink:href="#m62818952b8" x="54.53" y="357.343107" style="fill: #555555; stroke: #555555; stroke-width: 0.8"/>
      </g>
     </g>
     <g id="text_19">
      <!-- −2.5 -->
      <g style="fill: #555555" transform="translate(23.247187 361.142326) scale(0.1 -0.1)">
       <use xlink:href="#DejaVuSans-2212"/>
       <use xlink:href="#DejaVuSans-32" x="83.789062"/>
       <use xlink:href="#DejaVuSans-2e" x="147.412109"/>
       <use xlink:href="#DejaVuSans-35" x="179.199219"/>
      </g>
     </g>
    </g>
    <g id="ytick_11">
     <g id="line2d_45">
      <path d="M 54.53 334.761811 
L 421.2 334.761811 
" clip-path="url(#pff6eb96ce0)" style="fill: none; stroke: #ffffff; stroke-width: 1.2; stroke-linecap: square"/>
     </g>
     <g id="line2d_46">
      <g>
       <use xlink:href="#m62818952b8" x="54.53" y="334.761811" style="fill: #555555; stroke: #555555; stroke-width: 0.8"/>
      </g>
     </g>
     <g id="text_20">
      <!-- 0.0 -->
      <g style="fill: #555555" transform="translate(31.626875 338.561029) scale(0.1 -0.1)">
       <use xlink:href="#DejaVuSans-30"/>
       <use xlink:href="#DejaVuSans-2e" x="63.623047"/>
       <use xlink:href="#DejaVuSans-30" x="95.410156"/>
      </g>
     </g>
    </g>
    <g id="ytick_12">
     <g id="line2d_47">
      <path d="M 54.53 312.180514 
L 421.2 312.180514 
" clip-path="url(#pff6eb96ce0)" style="fill: none; stroke: #ffffff; stroke-width: 1.2; stroke-linecap: square"/>
     </g>
     <g id="line2d_48">
      <g>
       <use xlink:href="#m62818952b8" x="54.53" y="312.180514" style="fill: #555555; stroke: #555555; stroke-width: 0.8"/>
      </g>
     </g>
     <g id="text_21">
      <!-- 2.5 -->
      <g style="fill: #555555" transform="translate(31.626875 315.979733) scale(0.1 -0.1)">
       <use xlink:href="#DejaVuSans-32"/>
       <use xlink:href="#DejaVuSans-2e" x="63.623047"/>
       <use xlink:href="#DejaVuSans-35" x="95.410156"/>
      </g>
     </g>
    </g>
    <g id="text_22">
     <!-- 1e9 -->
     <g style="fill: #555555" transform="translate(54.53 292.092626) scale(0.1 -0.1)">
      <use xlink:href="#DejaVuSans-31"/>
      <use xlink:href="#DejaVuSans-65" x="63.623047"/>
      <use xlink:href="#DejaVuSans-39" x="125.146484"/>
     </g>
    </g>
   </g>
   <g id="patch_45">
    <path d="M 71.196818 334.761811 
L 80.6131 334.761811 
L 80.6131 332.440757 
L 71.196818 332.440757 
z
" clip-path="url(#pff6eb96ce0)" style="fill: #4477aa"/>
   </g>
   <g id="patch_46">
    <path d="M 165.359633 334.761811 
L 174.775914 334.761811 
L 174.775914 325.477596 
L 165.359633 325.477596 
z
" clip-path="url(#pff6eb96ce0)" style="fill: #4477aa"/>
   </g>
   <g id="patch_47">
    <path d="M 259.522447 334.761811 
L 268.938729 334.761811 
L 268.938729 313.872327 
L 259.522447 313.872327 
z
" clip-path="url(#pff6eb96ce0)" style="fill: #4477aa"/>
   </g>
   <g id="patch_48">
    <path d="M 353.685262 334.761811 
L 363.101543 334.761811 
L 363.101543 297.62495 
L 353.685262 297.62495 
z
" clip-path="url(#pff6eb96ce0)" style="fill: #4477aa"/>
   </g>
   <g id="patch_49">
    <path d="M 81.554728 334.761811 
L 90.971009 334.761811 
L 90.971009 332.482826 
L 81.554728 332.482826 
z
" clip-path="url(#pff6eb96ce0)" style="fill: #66ccee"/>
   </g>
   <g id="patch_50">
    <path d="M 175.717542 334.761811 
L 185.133824 334.761811 
L 185.133824 325.645873 
L 175.717542 325.645873 
z
" clip-path="url(#pff6eb96ce0)" style="fill: #66ccee"/>
   </g>
   <g id="patch_51">
    <path d="M 269.880357 334.761811 
L 279.296638 334.761811 
L 279.296638 314.25095 
L 269.880357 314.25095 
z
" clip-path="url(#pff6eb96ce0)" style="fill: #66ccee"/>
   </g>
   <g id="patch_52">
    <path d="M 364.043172 334.761811 
L 373.459453 334.761811 
L 373.459453 298.298059 
L 364.043172 298.298059 
z
" clip-path="url(#pff6eb96ce0)" style="fill: #66ccee"/>
   </g>
   <g id="patch_53">
    <path d="M 91.912637 334.761811 
L 101.328919 334.761811 
L 101.328919 332.534025 
L 91.912637 332.534025 
z
" clip-path="url(#pff6eb96ce0)" style="fill: #228833"/>
   </g>
   <g id="patch_54">
    <path d="M 186.075452 334.761811 
L 195.491733 334.761811 
L 195.491733 325.850666 
L 186.075452 325.850666 
z
" clip-path="url(#pff6eb96ce0)" style="fill: #228833"/>
   </g>
   <g id="patch_55">
    <path d="M 280.238267 334.761811 
L 289.654548 334.761811 
L 289.654548 314.711735 
L 280.238267 314.711735 
z
" clip-path="url(#pff6eb96ce0)" style="fill: #228833"/>
   </g>
   <g id="patch_56">
    <path d="M 374.401081 334.761811 
L 383.817363 334.761811 
L 383.817363 299.117232 
L 374.401081 299.117232 
z
" clip-path="url(#pff6eb96ce0)" style="fill: #228833"/>
   </g>
   <g id="patch_57">
    <path d="M 102.270547 334.761811 
L 111.686828 334.761811 
L 111.686828 332.575471 
L 102.270547 332.575471 
z
" clip-path="url(#pff6eb96ce0)" style="fill: #d4bb44"/>
   </g>
   <g id="patch_58">
    <path d="M 196.433362 334.761811 
L 205.849643 334.761811 
L 205.849643 326.01645 
L 196.433362 326.01645 
z
" clip-path="url(#pff6eb96ce0)" style="fill: #d4bb44"/>
   </g>
   <g id="patch_59">
    <path d="M 290.596176 334.761811 
L 300.012458 334.761811 
L 300.012458 315.08475 
L 290.596176 315.08475 
z
" clip-path="url(#pff6eb96ce0)" style="fill: #d4bb44"/>
   </g>
   <g id="patch_60">
    <path d="M 384.758991 334.761811 
L 394.175272 334.761811 
L 394.175272 299.78037 
L 384.758991 299.78037 
z
" clip-path="url(#pff6eb96ce0)" style="fill: #d4bb44"/>
   </g>
   <g id="patch_61">
    <path d="M 112.628457 334.761811 
L 122.044738 334.761811 
L 122.044738 332.59686 
L 112.628457 332.59686 
z
" clip-path="url(#pff6eb96ce0)" style="fill: #ee6677"/>
   </g>
   <g id="patch_62">
    <path d="M 206.791271 334.761811 
L 216.207553 334.761811 
L 216.207553 326.102007 
L 206.791271 326.102007 
z
" clip-path="url(#pff6eb96ce0)" style="fill: #ee6677"/>
   </g>
   <g id="patch_63">
    <path d="M 300.954086 334.761811 
L 310.370367 334.761811 
L 310.370367 315.277251 
L 300.954086 315.277251 
z
" clip-path="url(#pff6eb96ce0)" style="fill: #ee6677"/>
   </g>
   <g id="patch_64">
    <path d="M 395.1169 334.761811 
L 404.533182 334.761811 
L 404.533182 300.122594 
L 395.1169 300.122594 
z
" clip-path="url(#pff6eb96ce0)" style="fill: #ee6677"/>
   </g>
   <g id="text_23">
    <!-- MAC reduction for diff. W for TT decomposition -->
    <g transform="translate(97.81375 289.092626) scale(0.12 -0.12)">
     <use xlink:href="#DejaVuSans-4d"/>
     <use xlink:href="#DejaVuSans-41" x="86.279297"/>
     <use xlink:href="#DejaVuSans-43" x="152.9375"/>
     <use xlink:href="#DejaVuSans-20" x="222.761719"/>
     <use xlink:href="#DejaVuSans-72" x="254.548828"/>
     <use xlink:href="#DejaVuSans-65" x="293.412109"/>
     <use xlink:href="#DejaVuSans-64" x="354.935547"/>
     <use xlink:href="#DejaVuSans-75" x="418.412109"/>
     <use xlink:href="#DejaVuSans-63" x="481.791016"/>
     <use xlink:href="#DejaVuSans-74" x="536.771484"/>
     <use xlink:href="#DejaVuSans-69" x="575.980469"/>
     <use xlink:href="#DejaVuSans-6f" x="603.763672"/>
     <use xlink:href="#DejaVuSans-6e" x="664.945312"/>
     <use xlink:href="#DejaVuSans-20" x="728.324219"/>
     <use xlink:href="#DejaVuSans-66" x="760.111328"/>
     <use xlink:href="#DejaVuSans-6f" x="795.316406"/>
     <use xlink:href="#DejaVuSans-72" x="856.498047"/>
     <use xlink:href="#DejaVuSans-20" x="897.611328"/>
     <use xlink:href="#DejaVuSans-64" x="929.398438"/>
     <use xlink:href="#DejaVuSans-69" x="992.875"/>
     <use xlink:href="#DejaVuSans-66" x="1020.658203"/>
     <use xlink:href="#DejaVuSans-66" x="1055.863281"/>
     <use xlink:href="#DejaVuSans-2e" x="1083.818359"/>
     <use xlink:href="#DejaVuSans-20" x="1115.605469"/>
     <use xlink:href="#DejaVuSans-57" x="1147.392578"/>
     <use xlink:href="#DejaVuSans-20" x="1246.269531"/>
     <use xlink:href="#DejaVuSans-66" x="1278.056641"/>
     <use xlink:href="#DejaVuSans-6f" x="1313.261719"/>
     <use xlink:href="#DejaVuSans-72" x="1374.443359"/>
     <use xlink:href="#DejaVuSans-20" x="1415.556641"/>
     <use xlink:href="#DejaVuSans-54" x="1447.34375"/>
     <use xlink:href="#DejaVuSans-54" x="1506.677734"/>
     <use xlink:href="#DejaVuSans-20" x="1567.761719"/>
     <use xlink:href="#DejaVuSans-64" x="1599.548828"/>
     <use xlink:href="#DejaVuSans-65" x="1663.025391"/>
     <use xlink:href="#DejaVuSans-63" x="1724.548828"/>
     <use xlink:href="#DejaVuSans-6f" x="1779.529297"/>
     <use xlink:href="#DejaVuSans-6d" x="1840.710938"/>
     <use xlink:href="#DejaVuSans-70" x="1938.123047"/>
     <use xlink:href="#DejaVuSans-6f" x="2001.599609"/>
     <use xlink:href="#DejaVuSans-73" x="2062.78125"/>
     <use xlink:href="#DejaVuSans-69" x="2114.880859"/>
     <use xlink:href="#DejaVuSans-74" x="2142.664062"/>
     <use xlink:href="#DejaVuSans-69" x="2181.873047"/>
     <use xlink:href="#DejaVuSans-6f" x="2209.65625"/>
     <use xlink:href="#DejaVuSans-6e" x="2270.837891"/>
    </g>
   </g>
   <g id="legend_1">
    <g id="patch_65">
     <path d="M 97.959375 375.66 
L 414.2 375.66 
Q 416.2 375.66 416.2 373.66 
L 416.2 359.981875 
Q 416.2 357.981875 414.2 357.981875 
L 97.959375 357.981875 
Q 95.959375 357.981875 95.959375 359.981875 
L 95.959375 373.66 
Q 95.959375 375.66 97.959375 375.66 
z
" style="fill: #ebebeb; opacity: 0.8; stroke: #cccccc; stroke-linejoin: miter"/>
    </g>
    <g id="patch_66">
     <path d="M 99.959375 369.580312 
L 119.959375 369.580312 
L 119.959375 362.580312 
L 99.959375 362.580312 
z
" style="fill: #4477aa"/>
    </g>
    <g id="text_24">
     <!-- 0.1 -->
     <g transform="translate(127.959375 369.580312) scale(0.1 -0.1)">
      <use xlink:href="#DejaVuSans-30"/>
      <use xlink:href="#DejaVuSans-2e" x="63.623047"/>
      <use xlink:href="#DejaVuSans-31" x="95.410156"/>
     </g>
    </g>
    <g id="patch_67">
     <path d="M 163.8625 369.580312 
L 183.8625 369.580312 
L 183.8625 362.580312 
L 163.8625 362.580312 
z
" style="fill: #66ccee"/>
    </g>
    <g id="text_25">
     <!-- 0.25 -->
     <g transform="translate(191.8625 369.580312) scale(0.1 -0.1)">
      <use xlink:href="#DejaVuSans-30"/>
      <use xlink:href="#DejaVuSans-2e" x="63.623047"/>
      <use xlink:href="#DejaVuSans-32" x="95.410156"/>
      <use xlink:href="#DejaVuSans-35" x="159.033203"/>
     </g>
    </g>
    <g id="patch_68">
     <path d="M 234.128125 369.580312 
L 254.128125 369.580312 
L 254.128125 362.580312 
L 234.128125 362.580312 
z
" style="fill: #228833"/>
    </g>
    <g id="text_26">
     <!-- 0.5 -->
     <g transform="translate(262.128125 369.580312) scale(0.1 -0.1)">
      <use xlink:href="#DejaVuSans-30"/>
      <use xlink:href="#DejaVuSans-2e" x="63.623047"/>
      <use xlink:href="#DejaVuSans-35" x="95.410156"/>
     </g>
    </g>
    <g id="patch_69">
     <path d="M 298.03125 369.580312 
L 318.03125 369.580312 
L 318.03125 362.580312 
L 298.03125 362.580312 
z
" style="fill: #d4bb44"/>
    </g>
    <g id="text_27">
     <!-- 0.75 -->
     <g transform="translate(326.03125 369.580312) scale(0.1 -0.1)">
      <defs>
       <path id="DejaVuSans-37" d="M 525 4666 
L 3525 4666 
L 3525 4397 
L 1831 0 
L 1172 0 
L 2766 4134 
L 525 4134 
L 525 4666 
z
" transform="scale(0.015625)"/>
      </defs>
      <use xlink:href="#DejaVuSans-30"/>
      <use xlink:href="#DejaVuSans-2e" x="63.623047"/>
      <use xlink:href="#DejaVuSans-37" x="95.410156"/>
      <use xlink:href="#DejaVuSans-35" x="159.033203"/>
     </g>
    </g>
    <g id="patch_70">
     <path d="M 368.296875 369.580312 
L 388.296875 369.580312 
L 388.296875 362.580312 
L 368.296875 362.580312 
z
" style="fill: #ee6677"/>
    </g>
    <g id="text_28">
     <!-- 0.9 -->
     <g transform="translate(396.296875 369.580312) scale(0.1 -0.1)">
      <use xlink:href="#DejaVuSans-30"/>
      <use xlink:href="#DejaVuSans-2e" x="63.623047"/>
      <use xlink:href="#DejaVuSans-39" x="95.410156"/>
     </g>
    </g>
   </g>
  </g>
  <g id="text_29">
   <!-- Reduced number of MAC operations -->
   <g transform="translate(17.758125 324.130313) rotate(-90) scale(0.12 -0.12)">
    <defs>
     <path id="DejaVuSans-52" d="M 2841 2188 
Q 3044 2119 3236 1894 
Q 3428 1669 3622 1275 
L 4263 0 
L 3584 0 
L 2988 1197 
Q 2756 1666 2539 1819 
Q 2322 1972 1947 1972 
L 1259 1972 
L 1259 0 
L 628 0 
L 628 4666 
L 2053 4666 
Q 2853 4666 3247 4331 
Q 3641 3997 3641 3322 
Q 3641 2881 3436 2590 
Q 3231 2300 2841 2188 
z
M 1259 4147 
L 1259 2491 
L 2053 2491 
Q 2509 2491 2742 2702 
Q 2975 2913 2975 3322 
Q 2975 3731 2742 3939 
Q 2509 4147 2053 4147 
L 1259 4147 
z
" transform="scale(0.015625)"/>
     <path id="DejaVuSans-62" d="M 3116 1747 
Q 3116 2381 2855 2742 
Q 2594 3103 2138 3103 
Q 1681 3103 1420 2742 
Q 1159 2381 1159 1747 
Q 1159 1113 1420 752 
Q 1681 391 2138 391 
Q 2594 391 2855 752 
Q 3116 1113 3116 1747 
z
M 1159 2969 
Q 1341 3281 1617 3432 
Q 1894 3584 2278 3584 
Q 2916 3584 3314 3078 
Q 3713 2572 3713 1747 
Q 3713 922 3314 415 
Q 2916 -91 2278 -91 
Q 1894 -91 1617 61 
Q 1341 213 1159 525 
L 1159 0 
L 581 0 
L 581 4863 
L 1159 4863 
L 1159 2969 
z
" transform="scale(0.015625)"/>
    </defs>
    <use xlink:href="#DejaVuSans-52"/>
    <use xlink:href="#DejaVuSans-65" x="64.982422"/>
    <use xlink:href="#DejaVuSans-64" x="126.505859"/>
    <use xlink:href="#DejaVuSans-75" x="189.982422"/>
    <use xlink:href="#DejaVuSans-63" x="253.361328"/>
    <use xlink:href="#DejaVuSans-65" x="308.341797"/>
    <use xlink:href="#DejaVuSans-64" x="369.865234"/>
    <use xlink:href="#DejaVuSans-20" x="433.341797"/>
    <use xlink:href="#DejaVuSans-6e" x="465.128906"/>
    <use xlink:href="#DejaVuSans-75" x="528.507812"/>
    <use xlink:href="#DejaVuSans-6d" x="591.886719"/>
    <use xlink:href="#DejaVuSans-62" x="689.298828"/>
    <use xlink:href="#DejaVuSans-65" x="752.775391"/>
    <use xlink:href="#DejaVuSans-72" x="814.298828"/>
    <use xlink:href="#DejaVuSans-20" x="855.412109"/>
    <use xlink:href="#DejaVuSans-6f" x="887.199219"/>
    <use xlink:href="#DejaVuSans-66" x="948.380859"/>
    <use xlink:href="#DejaVuSans-20" x="983.585938"/>
    <use xlink:href="#DejaVuSans-4d" x="1015.373047"/>
    <use xlink:href="#DejaVuSans-41" x="1101.652344"/>
    <use xlink:href="#DejaVuSans-43" x="1168.310547"/>
    <use xlink:href="#DejaVuSans-20" x="1238.134766"/>
    <use xlink:href="#DejaVuSans-6f" x="1269.921875"/>
    <use xlink:href="#DejaVuSans-70" x="1331.103516"/>
    <use xlink:href="#DejaVuSans-65" x="1394.580078"/>
    <use xlink:href="#DejaVuSans-72" x="1456.103516"/>
    <use xlink:href="#DejaVuSans-61" x="1497.216797"/>
    <use xlink:href="#DejaVuSans-74" x="1558.496094"/>
    <use xlink:href="#DejaVuSans-69" x="1597.705078"/>
    <use xlink:href="#DejaVuSans-6f" x="1625.488281"/>
    <use xlink:href="#DejaVuSans-6e" x="1686.669922"/>
    <use xlink:href="#DejaVuSans-73" x="1750.048828"/>
   </g>
  </g>
 </g>
 <defs>
  <clipPath id="p3803924ea3">
   <rect x="54.53" y="37.8" width="366.67" height="85.567374"/>
  </clipPath>
  <clipPath id="p06284552a8">
   <rect x="54.53" y="166.446313" width="366.67" height="85.567374"/>
  </clipPath>
  <clipPath id="pff6eb96ce0">
   <rect x="54.53" y="295.092626" width="366.67" height="85.567374"/>
  </clipPath>
 </defs>
</svg>
